<mxfile host="app.diagrams.net" modified="2023-11-08T13:10:47.549Z" agent="Mozilla/5.0 (Windows NT 10.0; Win64; x64) AppleWebKit/537.36 (KHTML, like Gecko) Chrome/119.0.0.0 Safari/537.36" etag="Eh68G2fkvMedxWOWtgf8" version="22.0.8" type="github" pages="6">
  <diagram name="BigDecimal" id="ZGPOU9bdRQMk_ABTPPWa">
    <mxGraphModel dx="1050" dy="534" grid="0" gridSize="10" guides="1" tooltips="1" connect="1" arrows="1" fold="1" page="1" pageScale="1" pageWidth="827" pageHeight="1169" math="0" shadow="0">
      <root>
        <mxCell id="0" />
        <mxCell id="1" parent="0" />
        <mxCell id="rO_0RzukYQUUVJJy2ZyT-1" value="" style="childLayout=tableLayout;recursiveResize=0;shadow=0;fillColor=none;" parent="1" vertex="1">
          <mxGeometry x="160" y="141" width="500.95001220703125" height="457" as="geometry" />
        </mxCell>
        <mxCell id="rO_0RzukYQUUVJJy2ZyT-2" value="" style="shape=tableRow;horizontal=0;startSize=0;swimlaneHead=0;swimlaneBody=0;top=0;left=0;bottom=0;right=0;dropTarget=0;collapsible=0;recursiveResize=0;expand=0;fontStyle=0;fillColor=none;strokeColor=inherit;" parent="rO_0RzukYQUUVJJy2ZyT-1" vertex="1">
          <mxGeometry width="500.95001220703125" height="35" as="geometry" />
        </mxCell>
        <mxCell id="rO_0RzukYQUUVJJy2ZyT-3" value="方法" style="connectable=0;recursiveResize=0;strokeColor=inherit;fillColor=#99CCFF;align=center;whiteSpace=wrap;html=1;fontStyle=1" parent="rO_0RzukYQUUVJJy2ZyT-2" vertex="1">
          <mxGeometry width="125" height="35" as="geometry">
            <mxRectangle width="125" height="35" as="alternateBounds" />
          </mxGeometry>
        </mxCell>
        <mxCell id="rO_0RzukYQUUVJJy2ZyT-4" value="含义" style="connectable=0;recursiveResize=0;strokeColor=inherit;fillColor=#99CCFF;align=center;whiteSpace=wrap;html=1;fontStyle=1" parent="rO_0RzukYQUUVJJy2ZyT-2" vertex="1">
          <mxGeometry x="125" width="376" height="35" as="geometry">
            <mxRectangle width="376" height="35" as="alternateBounds" />
          </mxGeometry>
        </mxCell>
        <mxCell id="rO_0RzukYQUUVJJy2ZyT-6" style="shape=tableRow;horizontal=0;startSize=0;swimlaneHead=0;swimlaneBody=0;top=0;left=0;bottom=0;right=0;dropTarget=0;collapsible=0;recursiveResize=0;expand=0;fontStyle=0;fillColor=none;strokeColor=inherit;" parent="rO_0RzukYQUUVJJy2ZyT-1" vertex="1">
          <mxGeometry y="35" width="500.95001220703125" height="46" as="geometry" />
        </mxCell>
        <mxCell id="rO_0RzukYQUUVJJy2ZyT-7" value="add(BigDecimal)" style="connectable=0;recursiveResize=0;strokeColor=inherit;fillColor=none;align=center;whiteSpace=wrap;html=1;" parent="rO_0RzukYQUUVJJy2ZyT-6" vertex="1">
          <mxGeometry width="125" height="46" as="geometry">
            <mxRectangle width="125" height="46" as="alternateBounds" />
          </mxGeometry>
        </mxCell>
        <mxCell id="rO_0RzukYQUUVJJy2ZyT-8" value="BigDecimal对象中的值相加，返回BigDecimal对象" style="connectable=0;recursiveResize=0;strokeColor=inherit;fillColor=none;align=center;whiteSpace=wrap;html=1;" parent="rO_0RzukYQUUVJJy2ZyT-6" vertex="1">
          <mxGeometry x="125" width="376" height="46" as="geometry">
            <mxRectangle width="376" height="46" as="alternateBounds" />
          </mxGeometry>
        </mxCell>
        <mxCell id="rO_0RzukYQUUVJJy2ZyT-10" style="shape=tableRow;horizontal=0;startSize=0;swimlaneHead=0;swimlaneBody=0;top=0;left=0;bottom=0;right=0;dropTarget=0;collapsible=0;recursiveResize=0;expand=0;fontStyle=0;fillColor=none;strokeColor=inherit;" parent="rO_0RzukYQUUVJJy2ZyT-1" vertex="1">
          <mxGeometry y="81" width="500.95001220703125" height="47" as="geometry" />
        </mxCell>
        <mxCell id="rO_0RzukYQUUVJJy2ZyT-11" value="subtract(BigDecimal)" style="connectable=0;recursiveResize=0;strokeColor=inherit;fillColor=none;align=center;whiteSpace=wrap;html=1;" parent="rO_0RzukYQUUVJJy2ZyT-10" vertex="1">
          <mxGeometry width="125" height="47" as="geometry">
            <mxRectangle width="125" height="47" as="alternateBounds" />
          </mxGeometry>
        </mxCell>
        <mxCell id="rO_0RzukYQUUVJJy2ZyT-12" value="BigDecimal对象中的值相减，返回BigDecimal对象" style="connectable=0;recursiveResize=0;strokeColor=inherit;fillColor=none;align=center;whiteSpace=wrap;html=1;" parent="rO_0RzukYQUUVJJy2ZyT-10" vertex="1">
          <mxGeometry x="125" width="376" height="47" as="geometry">
            <mxRectangle width="376" height="47" as="alternateBounds" />
          </mxGeometry>
        </mxCell>
        <mxCell id="rO_0RzukYQUUVJJy2ZyT-14" style="shape=tableRow;horizontal=0;startSize=0;swimlaneHead=0;swimlaneBody=0;top=0;left=0;bottom=0;right=0;dropTarget=0;collapsible=0;recursiveResize=0;expand=0;fontStyle=0;fillColor=none;strokeColor=inherit;" parent="rO_0RzukYQUUVJJy2ZyT-1" vertex="1">
          <mxGeometry y="128" width="500.95001220703125" height="47" as="geometry" />
        </mxCell>
        <mxCell id="rO_0RzukYQUUVJJy2ZyT-15" value="multiply(BigDecimal)" style="connectable=0;recursiveResize=0;strokeColor=inherit;fillColor=none;align=center;whiteSpace=wrap;html=1;" parent="rO_0RzukYQUUVJJy2ZyT-14" vertex="1">
          <mxGeometry width="125" height="47" as="geometry">
            <mxRectangle width="125" height="47" as="alternateBounds" />
          </mxGeometry>
        </mxCell>
        <mxCell id="rO_0RzukYQUUVJJy2ZyT-16" value="BigDecimal对象中的值相乘，返回BigDecimal对象" style="connectable=0;recursiveResize=0;strokeColor=inherit;fillColor=none;align=center;whiteSpace=wrap;html=1;" parent="rO_0RzukYQUUVJJy2ZyT-14" vertex="1">
          <mxGeometry x="125" width="376" height="47" as="geometry">
            <mxRectangle width="376" height="47" as="alternateBounds" />
          </mxGeometry>
        </mxCell>
        <mxCell id="rO_0RzukYQUUVJJy2ZyT-17" style="shape=tableRow;horizontal=0;startSize=0;swimlaneHead=0;swimlaneBody=0;top=0;left=0;bottom=0;right=0;dropTarget=0;collapsible=0;recursiveResize=0;expand=0;fontStyle=0;fillColor=none;strokeColor=inherit;" parent="rO_0RzukYQUUVJJy2ZyT-1" vertex="1">
          <mxGeometry y="175" width="500.95001220703125" height="47" as="geometry" />
        </mxCell>
        <mxCell id="rO_0RzukYQUUVJJy2ZyT-18" value="divide(BigDecimal)" style="connectable=0;recursiveResize=0;strokeColor=inherit;fillColor=none;align=center;whiteSpace=wrap;html=1;" parent="rO_0RzukYQUUVJJy2ZyT-17" vertex="1">
          <mxGeometry width="125" height="47" as="geometry">
            <mxRectangle width="125" height="47" as="alternateBounds" />
          </mxGeometry>
        </mxCell>
        <mxCell id="rO_0RzukYQUUVJJy2ZyT-19" value="BigDecimal对象中的值相除，返回BigDecimal对象" style="connectable=0;recursiveResize=0;strokeColor=inherit;fillColor=none;align=center;whiteSpace=wrap;html=1;" parent="rO_0RzukYQUUVJJy2ZyT-17" vertex="1">
          <mxGeometry x="125" width="376" height="47" as="geometry">
            <mxRectangle width="376" height="47" as="alternateBounds" />
          </mxGeometry>
        </mxCell>
        <mxCell id="rO_0RzukYQUUVJJy2ZyT-20" style="shape=tableRow;horizontal=0;startSize=0;swimlaneHead=0;swimlaneBody=0;top=0;left=0;bottom=0;right=0;dropTarget=0;collapsible=0;recursiveResize=0;expand=0;fontStyle=0;fillColor=none;strokeColor=inherit;" parent="rO_0RzukYQUUVJJy2ZyT-1" vertex="1">
          <mxGeometry y="222" width="500.95001220703125" height="47" as="geometry" />
        </mxCell>
        <mxCell id="rO_0RzukYQUUVJJy2ZyT-21" value="toString()" style="connectable=0;recursiveResize=0;strokeColor=inherit;fillColor=none;align=center;whiteSpace=wrap;html=1;" parent="rO_0RzukYQUUVJJy2ZyT-20" vertex="1">
          <mxGeometry width="125" height="47" as="geometry">
            <mxRectangle width="125" height="47" as="alternateBounds" />
          </mxGeometry>
        </mxCell>
        <mxCell id="rO_0RzukYQUUVJJy2ZyT-22" value="将BigDecimal对象中的值转换成字符串" style="connectable=0;recursiveResize=0;strokeColor=inherit;fillColor=none;align=center;whiteSpace=wrap;html=1;" parent="rO_0RzukYQUUVJJy2ZyT-20" vertex="1">
          <mxGeometry x="125" width="376" height="47" as="geometry">
            <mxRectangle width="376" height="47" as="alternateBounds" />
          </mxGeometry>
        </mxCell>
        <mxCell id="rO_0RzukYQUUVJJy2ZyT-23" style="shape=tableRow;horizontal=0;startSize=0;swimlaneHead=0;swimlaneBody=0;top=0;left=0;bottom=0;right=0;dropTarget=0;collapsible=0;recursiveResize=0;expand=0;fontStyle=0;fillColor=none;strokeColor=inherit;" parent="rO_0RzukYQUUVJJy2ZyT-1" vertex="1">
          <mxGeometry y="269" width="500.95001220703125" height="47" as="geometry" />
        </mxCell>
        <mxCell id="rO_0RzukYQUUVJJy2ZyT-24" value="doubleValue()" style="connectable=0;recursiveResize=0;strokeColor=inherit;fillColor=none;align=center;whiteSpace=wrap;html=1;" parent="rO_0RzukYQUUVJJy2ZyT-23" vertex="1">
          <mxGeometry width="125" height="47" as="geometry">
            <mxRectangle width="125" height="47" as="alternateBounds" />
          </mxGeometry>
        </mxCell>
        <mxCell id="rO_0RzukYQUUVJJy2ZyT-25" value="将BigDecimal对象中的值转换成双精度数" style="connectable=0;recursiveResize=0;strokeColor=inherit;fillColor=none;align=center;whiteSpace=wrap;html=1;" parent="rO_0RzukYQUUVJJy2ZyT-23" vertex="1">
          <mxGeometry x="125" width="376" height="47" as="geometry">
            <mxRectangle width="376" height="47" as="alternateBounds" />
          </mxGeometry>
        </mxCell>
        <mxCell id="rO_0RzukYQUUVJJy2ZyT-26" style="shape=tableRow;horizontal=0;startSize=0;swimlaneHead=0;swimlaneBody=0;top=0;left=0;bottom=0;right=0;dropTarget=0;collapsible=0;recursiveResize=0;expand=0;fontStyle=0;fillColor=none;strokeColor=inherit;" parent="rO_0RzukYQUUVJJy2ZyT-1" vertex="1">
          <mxGeometry y="316" width="500.95001220703125" height="47" as="geometry" />
        </mxCell>
        <mxCell id="rO_0RzukYQUUVJJy2ZyT-27" value="floatValue()" style="connectable=0;recursiveResize=0;strokeColor=inherit;fillColor=none;align=center;whiteSpace=wrap;html=1;" parent="rO_0RzukYQUUVJJy2ZyT-26" vertex="1">
          <mxGeometry width="125" height="47" as="geometry">
            <mxRectangle width="125" height="47" as="alternateBounds" />
          </mxGeometry>
        </mxCell>
        <mxCell id="rO_0RzukYQUUVJJy2ZyT-28" value="将BigDecimal对象中的值转换成单精度数" style="connectable=0;recursiveResize=0;strokeColor=inherit;fillColor=none;align=center;whiteSpace=wrap;html=1;" parent="rO_0RzukYQUUVJJy2ZyT-26" vertex="1">
          <mxGeometry x="125" width="376" height="47" as="geometry">
            <mxRectangle width="376" height="47" as="alternateBounds" />
          </mxGeometry>
        </mxCell>
        <mxCell id="rO_0RzukYQUUVJJy2ZyT-29" style="shape=tableRow;horizontal=0;startSize=0;swimlaneHead=0;swimlaneBody=0;top=0;left=0;bottom=0;right=0;dropTarget=0;collapsible=0;recursiveResize=0;expand=0;fontStyle=0;fillColor=none;strokeColor=inherit;" parent="rO_0RzukYQUUVJJy2ZyT-1" vertex="1">
          <mxGeometry y="363" width="500.95001220703125" height="47" as="geometry" />
        </mxCell>
        <mxCell id="rO_0RzukYQUUVJJy2ZyT-30" value="longValue()" style="connectable=0;recursiveResize=0;strokeColor=inherit;fillColor=none;align=center;whiteSpace=wrap;html=1;" parent="rO_0RzukYQUUVJJy2ZyT-29" vertex="1">
          <mxGeometry width="125" height="47" as="geometry">
            <mxRectangle width="125" height="47" as="alternateBounds" />
          </mxGeometry>
        </mxCell>
        <mxCell id="rO_0RzukYQUUVJJy2ZyT-31" value="将BigDecimal对象中的值转换成长整数" style="connectable=0;recursiveResize=0;strokeColor=inherit;fillColor=none;align=center;whiteSpace=wrap;html=1;" parent="rO_0RzukYQUUVJJy2ZyT-29" vertex="1">
          <mxGeometry x="125" width="376" height="47" as="geometry">
            <mxRectangle width="376" height="47" as="alternateBounds" />
          </mxGeometry>
        </mxCell>
        <mxCell id="rO_0RzukYQUUVJJy2ZyT-32" style="shape=tableRow;horizontal=0;startSize=0;swimlaneHead=0;swimlaneBody=0;top=0;left=0;bottom=0;right=0;dropTarget=0;collapsible=0;recursiveResize=0;expand=0;fontStyle=0;fillColor=none;strokeColor=inherit;" parent="rO_0RzukYQUUVJJy2ZyT-1" vertex="1">
          <mxGeometry y="410" width="500.95001220703125" height="47" as="geometry" />
        </mxCell>
        <mxCell id="rO_0RzukYQUUVJJy2ZyT-33" value="intValue()" style="connectable=0;recursiveResize=0;strokeColor=inherit;fillColor=none;align=center;whiteSpace=wrap;html=1;" parent="rO_0RzukYQUUVJJy2ZyT-32" vertex="1">
          <mxGeometry width="125" height="47" as="geometry">
            <mxRectangle width="125" height="47" as="alternateBounds" />
          </mxGeometry>
        </mxCell>
        <mxCell id="rO_0RzukYQUUVJJy2ZyT-34" value="将BigDecimal对象中的值转换成整数" style="connectable=0;recursiveResize=0;strokeColor=inherit;fillColor=none;align=center;whiteSpace=wrap;html=1;" parent="rO_0RzukYQUUVJJy2ZyT-32" vertex="1">
          <mxGeometry x="125" width="376" height="47" as="geometry">
            <mxRectangle width="376" height="47" as="alternateBounds" />
          </mxGeometry>
        </mxCell>
      </root>
    </mxGraphModel>
  </diagram>
  <diagram id="RyejgTbwHmuMGmfic1Ga" name="maven依赖范围">
    <mxGraphModel dx="724" dy="368" grid="0" gridSize="10" guides="1" tooltips="1" connect="1" arrows="1" fold="1" page="1" pageScale="1" pageWidth="827" pageHeight="1169" math="0" shadow="0">
      <root>
        <mxCell id="0" />
        <mxCell id="1" parent="0" />
        <mxCell id="EVCs8yATAE3dSSQvfmky-1" value="" style="childLayout=tableLayout;recursiveResize=0;shadow=0;fillColor=none;" vertex="1" parent="1">
          <mxGeometry x="215" y="221" width="553" height="175" as="geometry" />
        </mxCell>
        <mxCell id="EVCs8yATAE3dSSQvfmky-2" value="" style="shape=tableRow;horizontal=0;startSize=0;swimlaneHead=0;swimlaneBody=0;top=0;left=0;bottom=0;right=0;dropTarget=0;collapsible=0;recursiveResize=0;expand=0;fontStyle=0;fillColor=none;strokeColor=inherit;" vertex="1" parent="EVCs8yATAE3dSSQvfmky-1">
          <mxGeometry width="553" height="35" as="geometry" />
        </mxCell>
        <mxCell id="EVCs8yATAE3dSSQvfmky-3" value="" style="connectable=0;recursiveResize=0;strokeColor=inherit;fillColor=#FF66B3;align=center;whiteSpace=wrap;html=1;fontStyle=1" vertex="1" parent="EVCs8yATAE3dSSQvfmky-2">
          <mxGeometry width="111" height="35" as="geometry">
            <mxRectangle width="111" height="35" as="alternateBounds" />
          </mxGeometry>
        </mxCell>
        <mxCell id="EVCs8yATAE3dSSQvfmky-4" value="main目录(空间)" style="connectable=0;recursiveResize=0;strokeColor=inherit;fillColor=#FF66B3;align=center;whiteSpace=wrap;html=1;fontStyle=1" vertex="1" parent="EVCs8yATAE3dSSQvfmky-2">
          <mxGeometry x="111" width="110" height="35" as="geometry">
            <mxRectangle width="110" height="35" as="alternateBounds" />
          </mxGeometry>
        </mxCell>
        <mxCell id="EVCs8yATAE3dSSQvfmky-5" value="test目录(空间)" style="connectable=0;recursiveResize=0;strokeColor=inherit;fillColor=#FF66B3;align=center;whiteSpace=wrap;html=1;fontStyle=1" vertex="1" parent="EVCs8yATAE3dSSQvfmky-2">
          <mxGeometry x="221" width="111" height="35" as="geometry">
            <mxRectangle width="111" height="35" as="alternateBounds" />
          </mxGeometry>
        </mxCell>
        <mxCell id="EVCs8yATAE3dSSQvfmky-30" value="开发过程(时间)" style="connectable=0;recursiveResize=0;strokeColor=inherit;fillColor=#FF66B3;align=center;whiteSpace=wrap;html=1;fontStyle=1" vertex="1" parent="EVCs8yATAE3dSSQvfmky-2">
          <mxGeometry x="332" width="110" height="35" as="geometry">
            <mxRectangle width="110" height="35" as="alternateBounds" />
          </mxGeometry>
        </mxCell>
        <mxCell id="EVCs8yATAE3dSSQvfmky-26" value="部署到服务器(时间)" style="connectable=0;recursiveResize=0;strokeColor=inherit;fillColor=#FF66B3;align=center;whiteSpace=wrap;html=1;fontStyle=1" vertex="1" parent="EVCs8yATAE3dSSQvfmky-2">
          <mxGeometry x="442" width="111" height="35" as="geometry">
            <mxRectangle width="111" height="35" as="alternateBounds" />
          </mxGeometry>
        </mxCell>
        <mxCell id="EVCs8yATAE3dSSQvfmky-14" value="" style="shape=tableRow;horizontal=0;startSize=0;swimlaneHead=0;swimlaneBody=0;top=0;left=0;bottom=0;right=0;dropTarget=0;collapsible=0;recursiveResize=0;expand=0;fontStyle=0;fillColor=none;strokeColor=inherit;" vertex="1" parent="EVCs8yATAE3dSSQvfmky-1">
          <mxGeometry y="35" width="553" height="47" as="geometry" />
        </mxCell>
        <mxCell id="EVCs8yATAE3dSSQvfmky-15" value="compile" style="connectable=0;recursiveResize=0;strokeColor=inherit;fillColor=none;align=center;whiteSpace=wrap;html=1;" vertex="1" parent="EVCs8yATAE3dSSQvfmky-14">
          <mxGeometry width="111" height="47" as="geometry">
            <mxRectangle width="111" height="47" as="alternateBounds" />
          </mxGeometry>
        </mxCell>
        <mxCell id="EVCs8yATAE3dSSQvfmky-16" value="有效" style="connectable=0;recursiveResize=0;strokeColor=inherit;fillColor=none;align=center;whiteSpace=wrap;html=1;" vertex="1" parent="EVCs8yATAE3dSSQvfmky-14">
          <mxGeometry x="111" width="110" height="47" as="geometry">
            <mxRectangle width="110" height="47" as="alternateBounds" />
          </mxGeometry>
        </mxCell>
        <mxCell id="EVCs8yATAE3dSSQvfmky-17" value="有效" style="connectable=0;recursiveResize=0;strokeColor=inherit;fillColor=none;align=center;whiteSpace=wrap;html=1;" vertex="1" parent="EVCs8yATAE3dSSQvfmky-14">
          <mxGeometry x="221" width="111" height="47" as="geometry">
            <mxRectangle width="111" height="47" as="alternateBounds" />
          </mxGeometry>
        </mxCell>
        <mxCell id="EVCs8yATAE3dSSQvfmky-31" value="有效" style="connectable=0;recursiveResize=0;strokeColor=inherit;fillColor=none;align=center;whiteSpace=wrap;html=1;" vertex="1" parent="EVCs8yATAE3dSSQvfmky-14">
          <mxGeometry x="332" width="110" height="47" as="geometry">
            <mxRectangle width="110" height="47" as="alternateBounds" />
          </mxGeometry>
        </mxCell>
        <mxCell id="EVCs8yATAE3dSSQvfmky-27" value="有效" style="connectable=0;recursiveResize=0;strokeColor=inherit;fillColor=none;align=center;whiteSpace=wrap;html=1;" vertex="1" parent="EVCs8yATAE3dSSQvfmky-14">
          <mxGeometry x="442" width="111" height="47" as="geometry">
            <mxRectangle width="111" height="47" as="alternateBounds" />
          </mxGeometry>
        </mxCell>
        <mxCell id="EVCs8yATAE3dSSQvfmky-6" style="shape=tableRow;horizontal=0;startSize=0;swimlaneHead=0;swimlaneBody=0;top=0;left=0;bottom=0;right=0;dropTarget=0;collapsible=0;recursiveResize=0;expand=0;fontStyle=0;fillColor=none;strokeColor=inherit;" vertex="1" parent="EVCs8yATAE3dSSQvfmky-1">
          <mxGeometry y="82" width="553" height="46" as="geometry" />
        </mxCell>
        <mxCell id="EVCs8yATAE3dSSQvfmky-7" value="test" style="connectable=0;recursiveResize=0;strokeColor=inherit;fillColor=none;align=center;whiteSpace=wrap;html=1;" vertex="1" parent="EVCs8yATAE3dSSQvfmky-6">
          <mxGeometry width="111" height="46" as="geometry">
            <mxRectangle width="111" height="46" as="alternateBounds" />
          </mxGeometry>
        </mxCell>
        <mxCell id="EVCs8yATAE3dSSQvfmky-8" value="无效" style="connectable=0;recursiveResize=0;strokeColor=inherit;fillColor=none;align=center;whiteSpace=wrap;html=1;" vertex="1" parent="EVCs8yATAE3dSSQvfmky-6">
          <mxGeometry x="111" width="110" height="46" as="geometry">
            <mxRectangle width="110" height="46" as="alternateBounds" />
          </mxGeometry>
        </mxCell>
        <mxCell id="EVCs8yATAE3dSSQvfmky-9" value="有效" style="connectable=0;recursiveResize=0;strokeColor=inherit;fillColor=none;align=center;whiteSpace=wrap;html=1;" vertex="1" parent="EVCs8yATAE3dSSQvfmky-6">
          <mxGeometry x="221" width="111" height="46" as="geometry">
            <mxRectangle width="111" height="46" as="alternateBounds" />
          </mxGeometry>
        </mxCell>
        <mxCell id="EVCs8yATAE3dSSQvfmky-32" value="有效" style="connectable=0;recursiveResize=0;strokeColor=inherit;fillColor=none;align=center;whiteSpace=wrap;html=1;" vertex="1" parent="EVCs8yATAE3dSSQvfmky-6">
          <mxGeometry x="332" width="110" height="46" as="geometry">
            <mxRectangle width="110" height="46" as="alternateBounds" />
          </mxGeometry>
        </mxCell>
        <mxCell id="EVCs8yATAE3dSSQvfmky-28" value="无效" style="connectable=0;recursiveResize=0;strokeColor=inherit;fillColor=none;align=center;whiteSpace=wrap;html=1;" vertex="1" parent="EVCs8yATAE3dSSQvfmky-6">
          <mxGeometry x="442" width="111" height="46" as="geometry">
            <mxRectangle width="111" height="46" as="alternateBounds" />
          </mxGeometry>
        </mxCell>
        <mxCell id="EVCs8yATAE3dSSQvfmky-10" style="shape=tableRow;horizontal=0;startSize=0;swimlaneHead=0;swimlaneBody=0;top=0;left=0;bottom=0;right=0;dropTarget=0;collapsible=0;recursiveResize=0;expand=0;fontStyle=0;fillColor=none;strokeColor=inherit;" vertex="1" parent="EVCs8yATAE3dSSQvfmky-1">
          <mxGeometry y="128" width="553" height="47" as="geometry" />
        </mxCell>
        <mxCell id="EVCs8yATAE3dSSQvfmky-11" value="provided" style="connectable=0;recursiveResize=0;strokeColor=inherit;fillColor=none;align=center;whiteSpace=wrap;html=1;" vertex="1" parent="EVCs8yATAE3dSSQvfmky-10">
          <mxGeometry width="111" height="47" as="geometry">
            <mxRectangle width="111" height="47" as="alternateBounds" />
          </mxGeometry>
        </mxCell>
        <mxCell id="EVCs8yATAE3dSSQvfmky-12" value="有效" style="connectable=0;recursiveResize=0;strokeColor=inherit;fillColor=none;align=center;whiteSpace=wrap;html=1;" vertex="1" parent="EVCs8yATAE3dSSQvfmky-10">
          <mxGeometry x="111" width="110" height="47" as="geometry">
            <mxRectangle width="110" height="47" as="alternateBounds" />
          </mxGeometry>
        </mxCell>
        <mxCell id="EVCs8yATAE3dSSQvfmky-13" value="有效" style="connectable=0;recursiveResize=0;strokeColor=inherit;fillColor=none;align=center;whiteSpace=wrap;html=1;" vertex="1" parent="EVCs8yATAE3dSSQvfmky-10">
          <mxGeometry x="221" width="111" height="47" as="geometry">
            <mxRectangle width="111" height="47" as="alternateBounds" />
          </mxGeometry>
        </mxCell>
        <mxCell id="EVCs8yATAE3dSSQvfmky-33" value="有效" style="connectable=0;recursiveResize=0;strokeColor=inherit;fillColor=none;align=center;whiteSpace=wrap;html=1;" vertex="1" parent="EVCs8yATAE3dSSQvfmky-10">
          <mxGeometry x="332" width="110" height="47" as="geometry">
            <mxRectangle width="110" height="47" as="alternateBounds" />
          </mxGeometry>
        </mxCell>
        <mxCell id="EVCs8yATAE3dSSQvfmky-29" value="无效" style="connectable=0;recursiveResize=0;strokeColor=inherit;fillColor=none;align=center;whiteSpace=wrap;html=1;" vertex="1" parent="EVCs8yATAE3dSSQvfmky-10">
          <mxGeometry x="442" width="111" height="47" as="geometry">
            <mxRectangle width="111" height="47" as="alternateBounds" />
          </mxGeometry>
        </mxCell>
      </root>
    </mxGraphModel>
  </diagram>
  <diagram id="7BxsmVHKsUe__uTEfdsA" name="maven生命周期">
    <mxGraphModel dx="688" dy="533" grid="0" gridSize="10" guides="1" tooltips="1" connect="1" arrows="1" fold="1" page="1" pageScale="1" pageWidth="827" pageHeight="1169" math="0" shadow="0">
      <root>
        <mxCell id="0" />
        <mxCell id="1" parent="0" />
        <mxCell id="SwEAupGMLEQS-zYdP7uu-1" value="" style="childLayout=tableLayout;recursiveResize=0;shadow=0;fillColor=none;" vertex="1" parent="1">
          <mxGeometry x="7" y="50" width="815" height="261" as="geometry" />
        </mxCell>
        <mxCell id="SwEAupGMLEQS-zYdP7uu-2" value="" style="shape=tableRow;horizontal=0;startSize=0;swimlaneHead=0;swimlaneBody=0;top=0;left=0;bottom=0;right=0;dropTarget=0;collapsible=0;recursiveResize=0;expand=0;fontStyle=0;fillColor=none;strokeColor=inherit;" vertex="1" parent="SwEAupGMLEQS-zYdP7uu-1">
          <mxGeometry width="815" height="35" as="geometry" />
        </mxCell>
        <mxCell id="SwEAupGMLEQS-zYdP7uu-3" value="生命周期名称" style="connectable=0;recursiveResize=0;strokeColor=inherit;fillColor=#99FF99;align=center;whiteSpace=wrap;html=1;fontStyle=1" vertex="1" parent="SwEAupGMLEQS-zYdP7uu-2">
          <mxGeometry width="87" height="35" as="geometry">
            <mxRectangle width="87" height="35" as="alternateBounds" />
          </mxGeometry>
        </mxCell>
        <mxCell id="SwEAupGMLEQS-zYdP7uu-4" value="作用" style="connectable=0;recursiveResize=0;strokeColor=inherit;fillColor=#99FF99;align=center;whiteSpace=wrap;html=1;fontStyle=1" vertex="1" parent="SwEAupGMLEQS-zYdP7uu-2">
          <mxGeometry x="87" width="85" height="35" as="geometry">
            <mxRectangle width="85" height="35" as="alternateBounds" />
          </mxGeometry>
        </mxCell>
        <mxCell id="SwEAupGMLEQS-zYdP7uu-5" value="各个环节" style="connectable=0;recursiveResize=0;strokeColor=inherit;fillColor=#99FF99;align=center;whiteSpace=wrap;html=1;fontStyle=1" vertex="1" parent="SwEAupGMLEQS-zYdP7uu-2">
          <mxGeometry x="172" width="643" height="35" as="geometry">
            <mxRectangle width="643" height="35" as="alternateBounds" />
          </mxGeometry>
        </mxCell>
        <mxCell id="SwEAupGMLEQS-zYdP7uu-6" style="shape=tableRow;horizontal=0;startSize=0;swimlaneHead=0;swimlaneBody=0;top=0;left=0;bottom=0;right=0;dropTarget=0;collapsible=0;recursiveResize=0;expand=0;fontStyle=0;fillColor=none;strokeColor=inherit;" vertex="1" parent="SwEAupGMLEQS-zYdP7uu-1">
          <mxGeometry y="35" width="815" height="47" as="geometry" />
        </mxCell>
        <mxCell id="SwEAupGMLEQS-zYdP7uu-7" value="Clean" style="connectable=0;recursiveResize=0;strokeColor=inherit;fillColor=none;align=center;whiteSpace=wrap;html=1;" vertex="1" parent="SwEAupGMLEQS-zYdP7uu-6">
          <mxGeometry width="87" height="47" as="geometry">
            <mxRectangle width="87" height="47" as="alternateBounds" />
          </mxGeometry>
        </mxCell>
        <mxCell id="SwEAupGMLEQS-zYdP7uu-8" value="清理操作相关" style="connectable=0;recursiveResize=0;strokeColor=inherit;fillColor=none;align=center;whiteSpace=wrap;html=1;" vertex="1" parent="SwEAupGMLEQS-zYdP7uu-6">
          <mxGeometry x="87" width="85" height="47" as="geometry">
            <mxRectangle width="85" height="47" as="alternateBounds" />
          </mxGeometry>
        </mxCell>
        <mxCell id="SwEAupGMLEQS-zYdP7uu-9" value="pre-clean clean post-clean" style="connectable=0;recursiveResize=0;strokeColor=inherit;fillColor=none;align=center;whiteSpace=wrap;html=1;" vertex="1" parent="SwEAupGMLEQS-zYdP7uu-6">
          <mxGeometry x="172" width="643" height="47" as="geometry">
            <mxRectangle width="643" height="47" as="alternateBounds" />
          </mxGeometry>
        </mxCell>
        <mxCell id="SwEAupGMLEQS-zYdP7uu-10" style="shape=tableRow;horizontal=0;startSize=0;swimlaneHead=0;swimlaneBody=0;top=0;left=0;bottom=0;right=0;dropTarget=0;collapsible=0;recursiveResize=0;expand=0;fontStyle=0;fillColor=none;strokeColor=inherit;" vertex="1" parent="SwEAupGMLEQS-zYdP7uu-1">
          <mxGeometry y="82" width="815" height="47" as="geometry" />
        </mxCell>
        <mxCell id="SwEAupGMLEQS-zYdP7uu-11" value="Site" style="connectable=0;recursiveResize=0;strokeColor=inherit;fillColor=none;align=center;whiteSpace=wrap;html=1;" vertex="1" parent="SwEAupGMLEQS-zYdP7uu-10">
          <mxGeometry width="87" height="47" as="geometry">
            <mxRectangle width="87" height="47" as="alternateBounds" />
          </mxGeometry>
        </mxCell>
        <mxCell id="SwEAupGMLEQS-zYdP7uu-12" value="生成站点相关" style="connectable=0;recursiveResize=0;strokeColor=inherit;fillColor=none;align=center;whiteSpace=wrap;html=1;" vertex="1" parent="SwEAupGMLEQS-zYdP7uu-10">
          <mxGeometry x="87" width="85" height="47" as="geometry">
            <mxRectangle width="85" height="47" as="alternateBounds" />
          </mxGeometry>
        </mxCell>
        <mxCell id="SwEAupGMLEQS-zYdP7uu-13" value="pre-site site post-site deploy-site" style="connectable=0;recursiveResize=0;strokeColor=inherit;fillColor=none;align=center;whiteSpace=wrap;html=1;" vertex="1" parent="SwEAupGMLEQS-zYdP7uu-10">
          <mxGeometry x="172" width="643" height="47" as="geometry">
            <mxRectangle width="643" height="47" as="alternateBounds" />
          </mxGeometry>
        </mxCell>
        <mxCell id="SwEAupGMLEQS-zYdP7uu-14" style="shape=tableRow;horizontal=0;startSize=0;swimlaneHead=0;swimlaneBody=0;top=0;left=0;bottom=0;right=0;dropTarget=0;collapsible=0;recursiveResize=0;expand=0;fontStyle=0;fillColor=none;strokeColor=inherit;" vertex="1" parent="SwEAupGMLEQS-zYdP7uu-1">
          <mxGeometry y="129" width="815" height="132" as="geometry" />
        </mxCell>
        <mxCell id="SwEAupGMLEQS-zYdP7uu-15" value="Default" style="connectable=0;recursiveResize=0;strokeColor=inherit;fillColor=none;align=center;whiteSpace=wrap;html=1;" vertex="1" parent="SwEAupGMLEQS-zYdP7uu-14">
          <mxGeometry width="87" height="132" as="geometry">
            <mxRectangle width="87" height="132" as="alternateBounds" />
          </mxGeometry>
        </mxCell>
        <mxCell id="SwEAupGMLEQS-zYdP7uu-16" value="主要构建过程" style="connectable=0;recursiveResize=0;strokeColor=inherit;fillColor=none;align=center;whiteSpace=wrap;html=1;" vertex="1" parent="SwEAupGMLEQS-zYdP7uu-14">
          <mxGeometry x="87" width="85" height="132" as="geometry">
            <mxRectangle width="85" height="132" as="alternateBounds" />
          </mxGeometry>
        </mxCell>
        <mxCell id="SwEAupGMLEQS-zYdP7uu-17" value="validate generate-sources process-sources generate-resources process-resources 复制并处理资源文件，至目标目录，准备打包。 compile 编译项目 main 目录下的源代码。 process-classes generate-test-sources process-test-sources generate-test-resources process-test-resources 复制并处理资源文件，至目标测试目录。 test-compile 编译测试源代码。 process-test-classes test 使用合适的单元测试框架运行测试。这些测试代码不会被打包或部署。 prepare-package package 接受编译好的代码，打包成可发布的格式，如JAR。 pre-integration-test integration-test post-integration-test verify install将包安装至本地仓库，以让其它项目依赖。 deploy将最终的包复制到远程的仓库，以让其它开发人员共享；或者部署到服务器上运行（需借助插件，例如：cargo）。" style="connectable=0;recursiveResize=0;strokeColor=inherit;fillColor=none;align=center;whiteSpace=wrap;html=1;" vertex="1" parent="SwEAupGMLEQS-zYdP7uu-14">
          <mxGeometry x="172" width="643" height="132" as="geometry">
            <mxRectangle width="643" height="132" as="alternateBounds" />
          </mxGeometry>
        </mxCell>
      </root>
    </mxGraphModel>
  </diagram>
  <diagram id="R_m3KIDZAWfg-qjELzGI" name="maven profile">
    <mxGraphModel dx="875" dy="445" grid="0" gridSize="10" guides="1" tooltips="1" connect="1" arrows="1" fold="1" page="1" pageScale="1" pageWidth="827" pageHeight="1169" math="0" shadow="0">
      <root>
        <mxCell id="0" />
        <mxCell id="1" parent="0" />
        <mxCell id="277RnX4VUEfXMEgr2pv6-1" value="" style="childLayout=tableLayout;recursiveResize=0;shadow=0;fillColor=none;" vertex="1" parent="1">
          <mxGeometry x="15" y="148" width="795" height="124.14999389648438" as="geometry" />
        </mxCell>
        <mxCell id="277RnX4VUEfXMEgr2pv6-2" value="" style="shape=tableRow;horizontal=0;startSize=0;swimlaneHead=0;swimlaneBody=0;top=0;left=0;bottom=0;right=0;dropTarget=0;collapsible=0;recursiveResize=0;expand=0;fontStyle=0;fillColor=none;strokeColor=inherit;" vertex="1" parent="277RnX4VUEfXMEgr2pv6-1">
          <mxGeometry width="795" height="35" as="geometry" />
        </mxCell>
        <mxCell id="277RnX4VUEfXMEgr2pv6-3" value="开发环境" style="connectable=0;recursiveResize=0;strokeColor=inherit;fillColor=#9999FF;align=center;whiteSpace=wrap;html=1;fontStyle=1" vertex="1" parent="277RnX4VUEfXMEgr2pv6-2">
          <mxGeometry width="249" height="35" as="geometry">
            <mxRectangle width="249" height="35" as="alternateBounds" />
          </mxGeometry>
        </mxCell>
        <mxCell id="277RnX4VUEfXMEgr2pv6-4" value="测试环境" style="connectable=0;recursiveResize=0;strokeColor=inherit;fillColor=#9999FF;align=center;whiteSpace=wrap;html=1;fontStyle=1" vertex="1" parent="277RnX4VUEfXMEgr2pv6-2">
          <mxGeometry x="249" width="248" height="35" as="geometry">
            <mxRectangle width="248" height="35" as="alternateBounds" />
          </mxGeometry>
        </mxCell>
        <mxCell id="277RnX4VUEfXMEgr2pv6-5" value="生产环境&lt;span style=&quot;white-space: pre;&quot;&gt;&#x9;&lt;/span&gt;" style="connectable=0;recursiveResize=0;strokeColor=inherit;fillColor=#9999FF;align=center;whiteSpace=wrap;html=1;fontStyle=1" vertex="1" parent="277RnX4VUEfXMEgr2pv6-2">
          <mxGeometry x="497" width="298" height="35" as="geometry">
            <mxRectangle width="298" height="35" as="alternateBounds" />
          </mxGeometry>
        </mxCell>
        <mxCell id="277RnX4VUEfXMEgr2pv6-6" style="shape=tableRow;horizontal=0;startSize=0;swimlaneHead=0;swimlaneBody=0;top=0;left=0;bottom=0;right=0;dropTarget=0;collapsible=0;recursiveResize=0;expand=0;fontStyle=0;fillColor=none;strokeColor=inherit;" vertex="1" parent="277RnX4VUEfXMEgr2pv6-1">
          <mxGeometry y="35" width="795" height="89" as="geometry" />
        </mxCell>
        <mxCell id="277RnX4VUEfXMEgr2pv6-7" value="dev.driver=com.mysql.jdbc.Driver dev.url=jdbc:mysql://124.71.36.17:3306/db-sys &lt;br&gt;dev.username=root &lt;br&gt;dev.password=123123" style="connectable=0;recursiveResize=0;strokeColor=inherit;fillColor=none;align=center;whiteSpace=wrap;html=1;" vertex="1" parent="277RnX4VUEfXMEgr2pv6-6">
          <mxGeometry width="249" height="89" as="geometry">
            <mxRectangle width="249" height="89" as="alternateBounds" />
          </mxGeometry>
        </mxCell>
        <mxCell id="277RnX4VUEfXMEgr2pv6-8" value="test.driver=com.mysql.jdbc.Driver test.url=jdbc:mysql://124.71.36.89:3306/db-sys &lt;br&gt;test.username=dev-team &lt;br&gt;test.password=123123" style="connectable=0;recursiveResize=0;strokeColor=inherit;fillColor=none;align=center;whiteSpace=wrap;html=1;" vertex="1" parent="277RnX4VUEfXMEgr2pv6-6">
          <mxGeometry x="249" width="248" height="89" as="geometry">
            <mxRectangle width="248" height="89" as="alternateBounds" />
          </mxGeometry>
        </mxCell>
        <mxCell id="277RnX4VUEfXMEgr2pv6-9" value="product.driver=com.mysql.jdbc.Driver product.url=jdbc:mysql://39.107.88.164:3306/prod-db-sys &lt;br&gt;product.username=root &lt;br&gt;product.password=123123" style="connectable=0;recursiveResize=0;strokeColor=inherit;fillColor=none;align=center;whiteSpace=wrap;html=1;" vertex="1" parent="277RnX4VUEfXMEgr2pv6-6">
          <mxGeometry x="497" width="298" height="89" as="geometry">
            <mxRectangle width="298" height="89" as="alternateBounds" />
          </mxGeometry>
        </mxCell>
      </root>
    </mxGraphModel>
  </diagram>
  <diagram id="kGbbUgxF2VnNPUjWFlCU" name="maven profile">
    <mxGraphModel dx="600" dy="305" grid="0" gridSize="10" guides="1" tooltips="1" connect="1" arrows="1" fold="1" page="1" pageScale="1" pageWidth="827" pageHeight="1169" math="0" shadow="0">
      <root>
        <mxCell id="0" />
        <mxCell id="1" parent="0" />
        <mxCell id="HgCGJ1RKAsyM8t96xPIt-1" value="" style="shape=image;verticalLabelPosition=bottom;labelBackgroundColor=default;verticalAlign=top;aspect=fixed;imageAspect=0;image=data:image/png,iVBORw0KGgoAAAANSUhEUgAAAVIAAAFHCAYAAADzzsTHAAAgAElEQVR4Ae2951MU39rvvf+Wffa9971njwQJgjdIGiQjQcTAgwRFVJCgKBhARUTM/kjmwM+AigEFFUUkI0kdMgjNqLOfqqfOeXPOqVPn5fep1UPP9AwzzEBLGi6qunqme/UK1/Vdn3Wt1T3NX/61yg60kQ1IA6QB0sDcNfAXMt7cjUe2I9uRBkgDTAMEUorIaUZCGiANSNQAgVSiASkioYiENEAaIJASSCkaIQ2QBiRqgEAq0YAUjVA0QhogDRBICaQUjZAGSAMSNWARSCOjtiDvRCHyT53Vbuy7t8KfHCDRARTNUDRDGlj+GjAL0oSdyej9OoiXr+vw9Nlr7famrgFNLZ0IDglftjBd5eyHiMQDOHwkE9vDfeG4ytZsW2RyN4QkpmL3nlRs8rE3m546yeJ3klVeiSi49wb1LR2orylB/BpbyOQOCEwpRvmV/Qh20PhdJneCXwzzbTx87c1rgXy7+L5dKj4wC9I7FY9QdvU2fHwD9TZfv2DcvfcILW1dCA2LXHZAcQzPx0ulGpM//s1vnOoXuqtytZ3KlIOcd1SgV6W57mmm07Jrt6l2WetxmTwcZ5pUvI8nvk/ie0cxQuUMpPG43q8Gp5rA3SQH3o8yuTfy6tixjzjqQSC1Vk3MR7vMgvRJVTWKzl3Wg6gAVcX6YNy8fR9fvg0Z3do7v6Ck7AbsHZYWcGTOqbg/qAY32Y/q4hNI35+PsjeDfGf7dm83HOTGO5HMKR7XunXwJZAu/YhE5l2ADyo1uPZyRNjbwc7ecQqaooh0KvokkC59f84HBH9Hnn85mnt8xqhqJpAyoCrWB2HnrhQkJadO29IyD6GhqYNfXzVWWZncGUGJB5GemQhfW3eE7sjC4bxcpMRvxDqDqZUubQJ8nbwRlpiNvNNHsNlNBz2Z3A5OvluQmJ6Lo4f2IWaDF2yNQNHneD3GVWq0XInWnpc5bkPZZzW4iXc4uE6Xp1BvmdwR0SXdmFBN4F1dGw/d2YBUr/4OHgiOzUT2oX2I9luLVSxCsl2HwG37cOjYMaRsC4CdkXrLVrlCEZOOg8dPI+/wfsQEuEIuSrcmfC/SMw8iKdxNz6cyuR+2pjM7J0Bhq2sbby/FlL1yMhG/wZOvi67Ngn8S4GvrCp9Ne5B1NBfpOyOx1kaXj5B+pr2u/Qvn63WbMpBe8Aw9DKTNFTiYeRDpsUG8zXT12YVA7dTedERqzlYztZ3OWT+g//LuXZ1epzN0ujmQCtGpqf35i8V4WPncaBm6CKADNTXDmJiaMrPp9nBLBVL8NVMuVidtWq4bDS3c1HS8G2c3aDq0TO6BbWdq0cvpIkY2bWu6fVDbUTT5eE1N39pwyl8fBqHnP/P5Vh/2mFZfm4jLaObUGKsvwsbDb+YA0qlOyjXiRc0Ifz1rJ8cpcXNPPE7VfdcdU3FoKUmEowiSMvdEXKwbASeyETc5ipr8KC10bWJu4ZtKjfFXR+EivnZTGbpVakx8OA3vqePMXltO1+jba3IUH29mwGdqrVhn8494XKWJ2Pk6q35B+a4I4SIoG+rG8Ls2L9XC+Truls7O2iWcqoOw4af206Gpq6P+1N4SWxm2l75bPzzFPv6LjZ0OVuITwmepIGXLAiwPIT/xXhAu3znHe/CwKBu792Qhv6INIyo1vn8ohK+242uEz6f9WofSE4dx4Eg2tk5Fj2vTqjDAINL9Cuey07E7/RSu14+CrX22XIrmOw8rWybfipJeNbiRh0gUwYadk6c84SPV9kub9OorswlD4ccf4LgOFIU7wP3YhzmDlNV//HMV8tPSsL/oBTqmwD/e8xZ/5O5HWt4tvB9Qg+OaccJXGCQ8kV6lgWhv7U2czExFyrFrqO1jyxMNOOY5lW7VFpR0s2vfIGutbpDY+McXcKqfeH3YW9su131V6FepMdTyCAX7U7Fr30mU86CewOsjgXw6Pf/0vMbZrH1IOVyCqs8cn19tnuVPbejltUC+dgvfhaQjlfwgwn28gT279iJpk+9URGo5SC2xlVjX9HllQZT5W9IaqakoVHzcEpAy2NUXhGg7OYsAsl6yzjqCa9sFmAjCH8T1eM06lyBYdkPhQrsGPvkBOifKnJJxj91Q+F6NdOepfGzS8IhTg+spR6QBSGUxN/iIbqQiVVQXOwScqMeoSo2O0lg++vM+0TANpGyq6BEShbBwgy3Im18+EEDCqQZxbbtwc2MdDtf84mFfc9RHW+bm8j5wqklU7NY8FcDuMLuHpyL3fC42OuoAuWUq3f29usFww4UuHnIvDmqiapl8E650qcGN1yDDVbBlOM63qcENPkeKCLgy5zQ8GlKDa7uCYL2obQR3djpr6+eYVsUPdGOP0rRLAZa3f+F8zfQhC7qAFja1f5Gtjdz540ZuLOl8pItImbYssZWgRdrr+t9KssVvA+k6L1/YO67BKlv9R4Js7FbD09tX2wnFxtUJVzdFF867HH7Lw+rtcc21urS6CExIK3M6hOeTanANZ+FjAMekiglwqj4URwsQ2Y2KUTW4rzcQbZBWFn+Xj2r7bidp6yvzyUXNiBrclwrET8HYv7DFCEijcLlTt6ygnUo2X4C/HpT067/7/iQ/YFyN1QFSWGIQr8GyNTpH33ikn7iEkttPUVXTjK6RX3w9XouWImQBRfjEovmXh/npvSyiGJ9VagxXZmqXCrT2Ujbj8f1K/KndqtHIbsJxz5Fiy+5sC4NXI/K8dfWT+ZxGPYPT25NYO2VDmdzS9i+cr5k+JINU0JYZWwlapD2BVAsPsRgsmdoziMpt7LE29BD89n1AwP4O3ZbeBI+tVyC300U0Qv6mOio7v2pfFb9m2n5ZM83WpdVFC9p8/IrQwDr2q6NaWAjnokuVfIR2f6/GwTL5Rlzkbyo9RbLBc6M26S94MDUWbeBtwcrc/5wtD3xHVVYo3D39oAgMQ/L1Hj5dbdFWhIX7w5kHpS+Sz9/C1WsGW2Ey3PRAql9/S0DKor2w42+gnNSAmq2Tjg31oaVbswaoB1K5L/LqfoLjarHf1Rbhl7rBqcZwZ5fuyQnZlL0E2BvuOVUzTirEINWvs/ZOuB5ILW2/PpTn09csb8kgtdBWgt5oTyCdM0hZJLo29CAiz/xPeO54DvfYCu22Lu4hNhxXQ7Gzclr+Ojj2o3SrLuJhYvQtaOZh9fKQ5g60Lq1+p+Y7i20aKifU4D5rnhEUxMwAlPZUBU7VjXNhQkTqigMvfoBT9aNki87pbPqccGuYn1I/SnPRgNTlKF6Lbu4YAod9575XIskgshXKF+9N1d8ikNrtw8MxNbjhj7iSHo9ANyd+nU9R0DQtImVluue8wbjqJ6qy4nGBDRrKe4gV3RiS2abjMVveaLyIECdXOE7b1sBm1exAKm6rsc+69i+cr1k9JIPUQlsZazMd0/Uva7fFb5nas+m8X+p7HqL/sToEhptjaD4iCv67SZAyIH17lKabJjpvRzkDANeBwmABgMI00whI5QocqWVT5D7c3eWpLcc26AzqxtXgvt1DrJ0O1I57H2NQpYby5THt40A2QSdRO6wG1/cn4oXnCh1jcMwwwrx2C/cbNJFgV809XC3P5h/wNicUHUj0628RSIVnIaeWCVhZMptA5NVNGgWpbM0BVI2pMfa5h7/R0l0ao/eYlEzui6NvVeC4TlyO1gwaLE+5Xy6qOtrw4maWwXKEfp2NRaSWtn+hfS0ZpBbaylz76bx1Q/W3gJSJhE3nWSRqCFH23d4/GxvP/l8t4ARRCXDhI7vJH+iue4Lrtx6hpnOCB8TXe3u0U3UhralfndhEXkYLi7LG+1BXWYHrFa/Rwtb7VGN4mqm7W83KltlsxOkGtnb6E8rWt6h88g5tg+ymzxhqc8Om1VOor7A3toYpnDO1N1V/i0Aq34gL7T/5JYbWl/dRWnoXjxtHtI+Liaf2rHyZfA32PhrnbcipenA+XDeICPWziSpGK7PXdyVqH93DtXuv8PEbi95/ou2PGJOPCPH5C2AXTe2FfE3thfYvuK8l3mxi7bHEVqbaTcetG6CCf82C1NRPRMV35llmUkDKTb7GhbwX+Dw6tQb4fRB1V9PhK4oihY5oCqTsZszazafxuHUE39l6qeoXRr58RHlaiN7dWqHhMufNOPmkHd/YjSfVLwx/bcWfRzaa/FWTcB3bLzRIWZm2oTmoaBnTPkc69vU9Sv/ULH8YgpRPv6OCf7yJazrPR5fi+rPPzF6u0QV42DKCMWHtdaQHzy/tgefUw/ambC4lIl1oX0uNSC21laF96fvKAKjgZ7MgNfXSEvELTFhmkkCqeoU0W1vI7T3gE+iPNaL1PKGis9nbrg2An5er9tnRma6V2brD29vNorQz5bMQ52SrnODqG4GwED84S7SRuL42a/wQEOgLZ9v5E78Oyovna3Gb5/p5IWw117rRdfOnX3O2NQtSloGx1+iJX6nH0gSkN2Fd/COjU/vVgUcRWfi/pk2ZdZ3rDQ44TZ9+mqs8nV884czW9uTr5eOr2fqW0lvwQL6lRvLYepm/O89uLLE1UWFjEPU/0IuAjJYZQPoe2aIHwy0tk9Itn86pAyn5mnS7fHRrqa8sikgtyYw9J+qT9BgRBf+Dv7HEbi6xLfLM/0ZAZgvsXPyMgNQJAdvTkZKaAD+Dl5RYUialWT6CZO/6JF8vH39R35qdr34bSMnwszM82YvsRRqwHg0QSOlfhUybKVAHt54OTr5cGF8SSAmkBFLSAGlAogYIpBINSCP+woz4ZGey81LWAIGUQErRCGmANCBRAwRSiQZcyqMk1Y2iONLAwmiAQEogpWiENEAakKgBAqlEA9KIvzAjPtmZ7LyUNUAgJZBSNEIaIA1I1ACBVKIBl/IoSXWjKI40sDAaIJASSCkaIQ2QBiRqgEAq0YA04i/MiE92JjsvZQ0QSAmkFI2QBkgDEjVAIJVowKU8SlLdKIojDSyMBgikBFKKRkgDpAGJGiCQSjQgjfgLM+KTncnOS1kDBFICKUUjpAHSgEQNEEglGnApj5JUN4riSAMLowECKYGUohHSAGlAogYIpBINSCP+woz4ZGey81LWAIGUQErRCGmANCBRAwRSiQZcyqMk1Y2iONLAwmiAQEogpWiENEAakKiBRQXpxk1bcSwvX287mnsS6/2DyLESHUuRyMJEImRnsjPTwKKBNC4hCT1f+lH1ohZPql5pt1c179HW0YOg0HCCKcGUNEAaWBYaWDSQ3rj1J0rKb8LHN1BvU6wPwrWb99Dc2gW/wNBlYUSKSigqIQ2sbA0sGkgfVD5D0bnLehAVoKpYH4w7dx/iy7cho1v7515cvFwKu9VOBFqKWEgDpIFF18CsQLrKdjWev3iJktIyoxW3d3BGU3MLjuYeN3pePGrPBFIGVF+/YCTu2IOk5NRpW1rmITQ0tiPniPlyxGXS55UdNZD/yf/zpYFZgXStmwc4bhLszxCmDKLNLa38uXfv6iSDVIhOTe3PXyxGxf3HRsuR2fphR1El3rb3oX9wCJ8bnqMoUaFNK5N7IquyF7WFcdic/wRvP49g9FGm9rxjyCGUVtWj9dsIvnW14ln5UUS42mrPz5czKF/q6KSB5amBWYGUOdnDy2caTMUQrXv/ATZ2DmahYy4iNQVQ4ThbFmB5GApPJrfHpivdGB9sxPX8g9ixcz/y7zZjaKQO2b4aJ8nk3sirU2OwsxtN7+7iVM4hZMRqnhSwCT+LhtGf6H5Zhpy0NOwvvIM3X39hqK4AgasIpob2pu/Ls+OT336v32YNUuYAMUzLr17XRqKWQpTlMX8gDUVRixpfr8ZrISuTKxCTnoGNnhrACyDlOsoQZquDo0zug5waDqNv8+EjgqZjzBXUNFTjSJAuLQnx9wqR7En2XM4amBNIWYPFMGXz+dlAlF0/fyB1RcqjMXD9DSjLSULg2unRsQDSwbvJWtiyOslsM/CY+4nH6XQTazmLmupOUF5oDcwZpKyiAkxnC1F27XyBlOUtc9+OU49a8G1cDW6SQ8/HF/gjKwpOck1EKYBUeWunPkj9itCg6kfJZoo8F1qIVB7BbzlrQBJIWcPd3D0tWhM1NNJ8glQoa5WTAmFxB1BY0YoB1QSeZfnw4DQJUqdsvFSpULHHXg+wQn60p85OGiANGNOAZJAay9SSY/MFUpmtJ0IT07FVoXO4TB6O821qDFfsmRmkU+mUFalwnIpeWVvkAem4cK0Ee/0pUrXEt5RGpz2yxcqwhRWCNA5Xv6gxXFeMHeEKuHhEIC67Ai3jHKpzfGcEKRO9S8pT9HFDqC5KxQYfH/ht3Y/S+glwvbcRY0cgJTCsDDCQn2fn50UDqamfiAqPN5nbs5+XsjyMOdwpKh+VbWOYUKkx+ePf4Ea/4uWl3fAws0bK8pLJnRGYWYH6vklwKjU41S8oGx7gQJiz0bKMlU/HZidCshfZa7lrYNFAauqlJeIXmJj6zF50wl54wvIw5QCZ3BFrvEIQGOgLJ9EjTqbSGx6XyR2wxicEfu4uWCWa5humo+8EAdIAaWDRQMrEZ+w1eoav1TP1nV1LAiYBkwZIA0tBA4sK0qVgAKoDdUTSAGlAqgYIpPTmHIrsSQOkAYkaIJBKNKDUkYyup2iINLD8NUAgJZBSNEIaIA1I1ACBVKIBKZpY/tEE+ZB8KFUDBFICKUUjpAHSgEQNEEglGlDqSEbXUzREGlj+GiCQEkgpGiENkAYkaoBAKtGAFE0s/2iCfEg+lKoBAimBlKIR0gBpQKIGCKQSDSh1JKPrKRoiDSx/DRBICaQUjZAGSAMSNUAglWhAiiaWfzRBPiQfStUAgZRAStEIaYA0IFEDBFKJBpQ6ktH1FA2RBpa/BgikBFKKRkgDpAGJGiCQSjQgRRPLP5ogH5IPpWqAQEogpWiENEAakKgBAqlEA0odyeh6ioZIA8tfA1YHUmP/B+po7kms9w+iUZcGDdIAaWBeNGBVIDX1n0lf1bxHW0cPgkLD58WIvyOikDt7wMXOdsnW73e0kfJY/pEX+dC4D60KpOz/3LP/d+/jG6i3KdYH4drNe2hu7YJfYOiSg5VMvg2lvWqM1+XDk/7185LzD8HDODzILjq7WBVIH1Q+Q9G5y3oQFaCqWB+MO3cf4su3IaNb++deXLxcCrvVTgvekWVyd2w9eRPFmeGwIZAuuP0JCDogkC3mZotFB+kq29V4/uIlSkrLjHYgewdnNDW34GjucaPnxY6fCaQMqL5+wUjcsQdJyanTtrTMQ2hobEfOEfPliMukz3MTHtmN7GZNGlh0kK518wDHTYL9GcKUQbS5pZU/9+5dnWSQCtGpqf35i8WouP/YaDkyuSeyKntRWxiDyCP38bqlD1866nG/IB7OcldsPvEALz8poVT2oPb2EYQ66dY7Zas8sDn3Lqqblegb+Q5lVyPun02G5ypNGiHv+ouxfNnC99rCrQg5cBNV9b1Q9n1Fw7NSJPk6GK2fNYmS2kKQXW4aWHSQMoN5ePlMg6kYonXvP8DGzjxAzEWkpgAqHGfLAiwPY06Uyb2RV6fGQGsLap9cQHrKQZy61QilagTvXtTjIzu2JwNHLlWjY0KN1oubpqDoiKhLHRjn+lBz9SyyUtJw+NIztI6p8LFQc/NLyFt5a+fUNVNltbTg7csyZKfsxZ7sErz69gvfG4oQMAVgY/WkYwQh0sDCa2BJgJQ5XgzT8qvXtZGopRBleSwESLm2YoTaCpFkKIpa1OC+3cE27TEH7Lg3Cu7DaXjIbSGTr4HP9sPI26db/5TJnbDnwXdwdaewjk+jAachSLmua4iaype1zynlCYZUzTjho4t2qdMsfKchm5PNDTWwZEDKKiaGKZvPzwai7PqFAOnQvd16Eevu+5Pg6vLhLrpJFHq+E1xnGcJEx1j9ZLYucPePRHTCflyoGQGnvIUtM4B0pCJVryyZbxEaVMMojyGQGgqZvhPcFlMDSwqkzBACTGcLUXbtQoBUiBoFp/EgfXsSa0XQDD3/WQ+k9qFZKHvRjm/f1eAmVRjobUddq3mQGpYl8y7AB9UIrsYSSAX7054AuhQ0sORAyozi5u5p0ZqooQGXIkhlq7aj/JsayrflOJAQCXcHjfB9C5rNRqQEUoKEocbp+9LUxJIE6VzFsiRB6nMa9QZRpEzujOQKikjn6me6bmnCZCX7hUAq+hWUJXftDaNEc1N7mW0S7gyo0XH/GLYGecDJPRRxJ16gfVRFESn97ltvDXwlg2i5t92qQGrqJ6LC403m9uznpSwPY041fERJSGMOpCydW2IJ3il/YvLHv8GpfkL57iLSzjcSSAmkRrUmaIv2yyfytiqQmnppyZOqVzC3Vb2oRc+XfrA85kPAMjs3+IRuRKifB2xFN6bmoyzKc/l0QPKVdfjKqkDKRGnsNXrH8vJhycauJWFbh7DJj+THhdSA1YF0IY1HZVFnJQ2QBpgGCKS0TkdROGmANCBRAwRSiQakiIQiEtIAaYBASiClaIQ0QBqQqAECqUQDUjRC0QhpgDRAICWQUjRCGiANSNQAgVSiASkaoWiENEAaIJASSCkaIQ2QBiRqgEAq0YAUjVA0QhogDRBICaQUjZAGSAMSNUAglWhAikYoGiENkAYIpARSikZIA6QBiRogkEo0IEUjFI2QBkgDBFICKUUjpAHSgEQNEEglGpCiEYpGSAOkAQIpgZSiEdIAaUCiBgikEg1I0QhFI6QB0gCBlEBK0QhpgDQgUQMEUokGpGiEohHSAGmAQGoBSB29tsFj62V4xhRrN/bd3iWARnIL7EegIdBYuwasHqSrbFdjrZvHnIHnEpCKyKL/g8BD/fDf36Pdgo+MIuzk/4vV7pFzzpuJa5WzB1xsbSXlYe0ipfYRiJe6BqwapHIbezx//gIcNwkPL585wcovpQ5eSa/wH6tD9DeHMPimNCA8//+Dg0fUnPKW2STgulKNsZpcuNO/aJ6TDZd6B6P6rYxBwKpBykT8R3Ep2N9cYRqwvwPusRX6EJ2C6t8dNkCx5z02nv2/RreIgv8Bn6THkNs5G4WETO6J2NM38UdaKFYRSI3aiEC0MkC03P1s9SCVCtOZQMqi1L87hMJu/X7Y+2dP2xxD87HhuJpfX13uQqH6E9BIA6Y1sCJAygRQXDK3yNQcSKdN+Q2WANbFP0JAepPRaItFpFmVvai/GKs9L1vlgc25d1HdrETfyHcouxpx/2wyPFdp1lFttpejsfMNjgXqr6vKfPPwvLMDZTs00a+5fKhTmO4UZBuyzWw1sGJAygxTVn5NO813c/fUwmsmo0kFKVsWYHkYK0Mm90ZenRrKWzv58zK5I6IudWCc60PN1bPISknD4UvP0DqmwsfCcE0au2TcHVSjqShML8+AwlZwI0+R7GgLS/IxVh86RgAhDcxNAysGpPYOzmhuaeVBWvf+A2zsHPRAZEpACwvSNfDZfhh5+8JhM7VmKpM7Yc+D7+DqTmGdnEHSATHX+8G1XUGwNk0IilrUUN5J5q+Tyc3nY6q9dHxuHYnstrLttiJAOleIss6xkCAVd0aZrQvc/SMRnbAfF2pGwClvYcsUOOXR5ehW9eBCuGZ6Lwu+gBbVAMpjpg8OM+UjLo8+r2wQkP+l+d/qQSoFokxcCw1S+9AslL1ox7fvanCTKgz0tqOuVR+kMnkELrSr0fHHZj6q3nChC1x3OSKn1lFZvS3JhzqPtM5D9iP7CRqwapCy50ibmppnPZ0XjMP2CwlS2artKP+mhvJtOQ4kRMLdQSNU34JmvYiUrxdbE+25io2rNuLiZzVazkdolypmk4+4rfSZwEAamJsGrBqkTBRHjubi3bs6i9dEDYW0oCD1OY161QiuxuruyMvkzkiu0I9IWR1l3vl4z/WhJLcMnZOtyPcXXTOLfAzbS9/n1pHIbivbblYPUqkCX1CQ2ibhzoAaHfePYWuQB5zcQxF34gXaR1XTIlL26FROzU+Mfp/EeF0+PEQP9MtmkY9U+9D1Kxsg5H+N/wmkZl66YfInogbPi5p6npT9vJTlYUxwho8/sTRuiSV4p/yJyR//Bqf6CeW7i0g73zgNpCytS2Y1RlU/8fLQ9Ee5ZpOPsbrRMQIkacByDRBIzYDU1EtLxC8wMfWZveiEvfCE5WFMlDK5H/I/qqG8kah3XmbnBp/QjQj184CtKNI0lsdMx35XPjOVQecs72xkK+u1FYHUDEiZ+I29Rk/8Sj1Tn9mr9ti1xjqQTG4Hx4B8VH9Xo/50kNE0xq6jY9bbGcm3y9e3BFILQDofApdtKkXXpBrfex5ht7vuRtF8lEV5Lt8OSr5bHr4jkC4WSNdGIi4uGt5OBFGCxfKABfnJtJ8IpIsEUhKlaVGSbcg2y00DBFICKa3PkgZIAxI1QCCVaMDlNnJSfSnaIw38fg0QSAmkFI2QBkgDEjVAIJVoQBrdf//oTjYlmy43DRBICaQUjZAGSAMSNUAglWjA5TZyUn0p2iMN/H4NEEgJpBSNkAZIAxI1QCCVaEAa3X//6E42JZsuNw0QSAmkFI2QBkgDEjVAIJVowOU2clJ9KdojDfx+DRBICaQUjZAGSAMSNUAglWhAGt1//+hONiWbLjcNEEgJpBSNkAZIAxI1QCCVaMDlNnJSfSnaIw38fg0QSAmkFI2QBkgDEjVAIJVoQBrdf//oTjYlmy43DRBILQBpZNQW5J0oRP6ps9qNffdW+NNIboH9llunoPoSyGerAQKpGRAk7ExG79dBvHxdh6fPXmu3N3UNaGrpRHBIOMHUjA1nK0pKTyBbbhogkJqBwJ2KRyi7ehs+voF6m69fMO7ee4SWti6EhkUSTM3Ycbl1DKovwXw2GiCQmgHAk6pqFJ27rAdRAaqK9cG4efs+vnwbMrq1d35BSdkN2Ds4EWjN2Hk2oqW0BLmlpgGrBOkq29V4/uIlSkrLjALM3sEZTc0tOJp73Oh5sZNmAikDqmJ9EHbuSkFScuq0LS3zEBqaOvj1VXGe9JlAQOVoX0QAACAASURBVBqwLg1YJUjXunmA4ybB/gxhyiDa3NLKn3v3rk4ySIXo1NT+/MViPKx8brQcmdwTWZW9qC2Mw+b8J3j7eQSjjzK1aR1DDqG0qh6t30bw7XMznhZnIshZ9++bZbZ+2FFUibftfegfHMLnhucoSlRorxc6q5BPy9cRfGn9iKfl2QgR/RtooR71F2P1rpUF5aO68z1OhNhCSGNRXbta8az8KCJcdXVldRHqIbU9Qrtob10wWs7+tEqQMod4ePlMg6kYonXvP8DGzkEPHMYcaS4iNQVQ4ThbFmB5GMtbJvdGXp0ag53daHp3F6dyDiEjNohPaxN+Fg2jHNoqLyMrJRUph0vwvOcHhl7nwkvOwGaPTVe6MT7YiOv5B7Fj537k323G0Egdsn11Hcwm4jwaRn+i83kpjqSlYt/hYlR1/8RI82VE2GpAJ9RDeWunXj1lGy6jTdWLC+GsPHN1/Ynul2XISUvD/sI7ePP1F4bqChC4SlPG72qPMTvSMZ2/yRaLYwurBSkTlBim5VevayNRSyHK8lgIkHIdZQibghorUyb3QXYNB2VlBlzluqhOHlSEBm4UNxPtIZOHoqhFja9X47Xwk8kViEnPwEZPzQDBvh+u4TBaexLeU0Bj+ct98lD7XYXaY378tQIkLQGpsbrmsDLe5sNHVIZjzBXUNFTjSBCD8O9pD6s7bWSDpagBqwYpM7gYpmw+PxuIsusXAqSDd5P1ACGzTcdjjkPloVD4BwSLtmRc61Kj/nQQZHJXpDwaA9ffgLKcJASunR5dy2wz8Jj7icdpzvr5y52QXvUT41VZsOWjW020aQlIp9d1qox00zfUfld7lmIHojoR2JkGrB6krJECTGcLUXatJSB1dfOEvcMao5vv+iCTj0eZjAT9itCgUmPyx7+NbgN3NOCVuW/HqUct+DauBjfJoefjC/yRFQWnqShWxufTh+JoXVQrdPzoUiW4losImCVIp8GWL6MfJZunlyGUpamH9PYI+dGe4LXUNLAiQMqM7ubuadGaqKGDLAGp3MYe8ZvccClnvcktJ9lLLypk5ZgEqXM2XqomcHePKxydjGz2+tHnKicFwuIOoLCiFQOqCTzL8uHLkjll48Ukh7u7pne8XRUT4F4d5aEr1GPg9i69Osqiy9FtsEY6DaROrK4qVOyx17tWbEfZb2qPOE/6PN2nZJPFs8mKAelcRWYJSFnepzIUaLwTbnJ7ciF4GmgEgE2DkzwSFzrU6CyP46feQt1ltkGI3bMdvmvsIbP1RGhiOrYqdOKRycNxvk2N4Yo9GpDKw3GuVQ3lvd2wF621yhx24U6fGm2XoqbSOSC18ie49wVYJ0SzcnsEFDaDMwfSqTKVFalwFJUhD0jHhWsl2OvP1kh/T3sEO9Be53OyxdKwBYHUzA0MS0E6F0GbAinLyyXlKfo4JZ4W7EGotyc8QuJxqKIb41wPLkY5QGYbh6tf1BiuK8aOcAVcPCIQl12BlnEO1Tm+Wmi77H0MJTeIl0V7EebjBe/w3SisHsDEQBX2rtVNx72OvMWoagRvirOxfVsCUk5X4UNLD/rNgFRX1yFUF6Vig48P/LbuR2n9BLje24ix05Txu9ozFzvTNUsDNtbsBwKpGZCa+omo8HgT2zOB3D8bhP/VFmNyG3qxSQs3QVAzgVQmX4PA9Nt4r+TATa2XjvTWozQ1CDZTkZ9TVD4q28YwMXWeG/2Kl5d2w0MUGbJ8gjLu4kOfis+Hm1RB2VCB9GAXvfrIbIORfrcVA5wa3Pgwml9exLZt0x9/MoyeWVtkcmcEZlagvm9SU4bqF5QND3AgTHeT63e1R7Ad7QmOS0kDBFIzIDX10hLxC0yYQz3dnfD/RP6XyS1kvT64LBWBTO4AJ68QBCg8YG+jiyCF62VyR6zxCkFgoC+cRI9QCeeFPctnjU8wfFz111eF88Je7uAOF8e5dVJNGSHwc3fBKhHMhbzZ/ne1R5wnfZ6bv8huv89uBFIzIGViM/YaPfEr9ViaudxsIiH/PiGTLcmWi6kBAqkFILXEQXO52WRJvpSGAEEaWPoaIJD+JpCS2Je+2MlH5KP50gCBlECqd9NpvoRG+RLErFkDBFICKYGUNEAakKgBAqlEA1rzKEttoyiSNGCZBgikBFKKRkgDpAGJGiCQSjQgjdiWjdhkJ7KTNWuAQEogpWiENEAakKgBAqlEA1rzKEttoyiSNGCZBgikBFKKRkgDpAGJGiCQSjQgjdiWjdhkJ7KTNWuAQEogpWiENEAakKgBAqlEA1rzKEttoyiSNGCZBgikBFKKRkgDpAGJGiCQSjQgjdiWjdhkJ7KTNWuAQEogpWiENEAakKgBAqlEA1rzKEttoyiSNGCZBgikBFKKRkgDpAGJGiCQSjTg7x6xj+WdwoNHVfyWe7wAchvT/y/+d5dN+VkWfZCdyE6GGiCQLiGQxu9IRmeXEgymbOvs/oYdSZr/UW/oOPpOnZk0sHQ0QCBdIiBd7bgGdR8acSL/jHaadfzkabyvb4aD0+z+A+kqZw+4zPAfRakDzk8HlDO7203/T69k7/mx91KyK4F0kUC6ynY1rpRc1U7jGTDr3n+Co7OrFqQMoG/rPqH+Y4s23R8l18CuNSUimU0CrivVGKvJhbuJf4nMrmX/Z37PjTbUX07Q5hVZWIfGP7NnvM5UuSv9uEy+DaW9aozX5cNzBruvdDtZa/sJpIsE0rSMg2hu7cKxvHx+S888hDWublqoCYJjx1haIR27JuPAoWnphPQyuSdiT9/EH2mhJv+3PEsrk7vi4Cs1Ru+navOKvTYIrv4MvAgEWpsIdhXvZUFn0fC9Gxc26qJPmdwdW0/eRHFmOGzIfjPaT2xLa/lMIF0EkLKokwfi/oPTBGe32glBoeEIDo2AnYPTtPP70g+gpa1bL3KdixgJpHOfbsqCLqBF9Q2Xo3QgnYsP6Jq5+2Cp2Y5AugggXevuga6ePsQnJumBMig4jJ/ef/k2hN6vg/znoJBwvTTbE5L4a51d/kvvuCAsFpFmVfai/mKs3nnXLQW4U9OK7v4RdDe9wvnEEBwyEZFu2FqIhx+/Qtnfh6a3T3AmQTEtunUMOYTSqnq0fhvBt65WPCs/ighX42AR6lRbuAWBabdQ09YPpbIH71/cREaIbv1Xly4Om/Of4O3nEYw+ytS2Qyiz5esIvrR+xNPybIQ46crUXT9zOYKthPz4NnxuxtPiTAQ5a/LT5aVfl4DjtejoHcF31U8MfOlFR2cVMtxtIaQ3tPtMZbB6yGz9sKOoEm/b+9A/OITPDc9RlKjQtlmoK+2XNnQJpIsAUtYpTp46w99IslvtzHcaW3tHvKtrREn5DT7aZFFrcdkNHqYsSmXXsAi1rr4J+afPmuxoMrk38urUUN7aqU1jH1OODk6F1spLyErZh7Tca3jT3YamLiNT+942fOpswvUTWdi9NxsFFW0Y4QZwJ1m37GATfhYNoz/R/bIMOWlp2F94B2++/sJQXQECV+nAJnR+oU79DY1o7niBokNpSE47gZKaAUyMfkJekKaTCOkGO7vR9O4uTuUcQkZsEN8Om4jzfJmdz0txJC0V+w4Xo6r7J0aaLyNi6saacL25cli9NG3g0FZ5GVkpqUg5XILnPT8w9DqXX9oQ8jKsi1NQPJKOVKJbNYzHJ/YiaVcsFPYMpNPtbr4Me2y60o3xwUZczz+IHTv3I/9uM4ZG6pDtu7TBIfiW9ho/EUgXCaTsRhKbosduT+RBEbIhAj1fBuDovFYLQAbT3q8DCA3byB+Ljd+J1vaeGaf1hh1aJvfH8fc/MfzysN5NJJuoMnSojIBUNYgbCWu0dZDJ12LvoxFwHcXYIGfA8EFODYfRt/nwEUHTMeYKahqqcSTINEi58Xoc8dadl9mG41zLLww8SocTn7cGRlxHGcJETx3I5AocZmXWnoS3qEy5Tx5qv6tQe8yPr6/QdvPl+CC7hoOyMgOuovVMeVARGrhR3Ey014LRsC4MHMam9kLZwgDG7GS+jFAUtajx9Wq8yN4KxKRnYKOng/YYwWrpDyoE0mUEUjatnzVI7TLxlPuJB6n6HVMmD8O5ViMgVd7CZhFcWCeWJ1ZgQFWPI2wKa5uBx9xPPE6fvn5rqsMLkOGqj8DRIG+fk5/AfbvJlymkG7ybrAcRbZlpmuhdKEcmd0J61U+MV2XBVgxic+XYpuMxx6HyUCj8A4JFWzKudalRfzpIC1LDurCyLQKpRWW4IuXRGLj+BpTlJCFwrb6PhHbSnkCq1yFIEDpBzGlqv9p51lN7mX8RPqn6UBytiwR5GMhdcei1EZA2nIWPAexkwezmihJ/RNtC5leEBlU/Sjbr5zeTbwVADtzRByS7ZtW+KkyoqpFuZ3x6zNeVL3N6G9i56FIluJaLCBCB1Gw5fH5qTP74t9GNXS/UWYgwxe2zCKQWlMG3zX07Tj1qwbdxNbhJDj0fX+CPrCg+QheXSZ91fWcp2oIi0kWISH/Hzab/cvc0OkgZAkDmnI2XqkncS9YXokwehMJGIyDtKUekIUhjbkKpasYJH1vInFh+KlTssfynq0KdJqoO8pGjuCO4H30PbrACsSIQGsKLlfliksPdXfptYPnsqpgA9+qo3tKA2XJ4m0zg7h5XODoZ2ewdpIPUgjLEdljlpEBY3AEUVrRiQDWBZ1k+Rv0rvoY+T9fDYtmEQLoIIBUef2LPhxo63tzjT2npWVOPP+nWUsV5CNASYCSTb8Slz2oo7+2GvQiQMt8CfOCMgFTVjXPhOoHK5A7YXP4NXH8FYlaxqDEc59vUUFak6k3T5QHpuHCtBHv9p0eqQp244Srsmborzuosk3shp2YS4zV5/PqtkE6ou9AuViZbhpjWBodduNOnRtulKN6OwvXmy4nEhQ41Osvj9MAusw1C7J7t8F2jWyM1rAtfb/7xJ/2oXChbSC+TW1CGrSdCE9OxVSG2t8a+wxX002DB/8thTyBdBJAyYcz1gfym1k4zD+RPv3vsnvUKw1w/qk4nI8TLCz5RmSj/2IVepRGQ9vWhvfk+srYEYZ1nKGLzqtDN/UTdCc3dc1Z3l5Sn6OOGUF2Uig0+PvDbuh+l9RPgem8jhp+iOyC6qBGdbRVIXqubso8p+9H66jx2bPCFu2809pU0YkjVh2vbNWufhjASdyCXvY+h5Abxsmgvwny84B2+G4XVA5gYqMLetRp4C9ebK0fXBiWeFuxBqLcnPELicaiiG+NcDy5GmYlIHdm6sxqtFYcRty0UbiaiaY2dZijDNg5Xv6gxXFeMHeEKuHhEIC67Ai3jHKpzfKcNsmJ70Gfd4LMUbEEgXSSQGv5E9MPHFpM/EWU/HxXeCGX2J6JGHsORyd0QdeIZOkZ+8muC3EQfnh/fhANPjIC05iSisp7i86hmDXFiTImX5xLgLrpbLpM7IzCzAvV9k+BUanCqX1A2PMCBMAGIzki82Yex4VpkeepAqryVifg/mtDHafIeH2jFjfRQ2E1FygIIhahO3EHYT1qDMu7iQ59KU+akCsqGCqQHi59DFQaRmcth+bL8AtNv472S4/Nj66UjvfUoTQ3if5k0c10cEJxThY5R1vY2FASI26h77MxcGaweTlH5qGwbw4RKYxNu9CteXtoND9HsQWwH+ry0ACr4g0C6SCAVHCDsf9dLS2RyP+R/VEN5Q/NYlZA/28tsXOEREIx1TubvDq9y9IRvoB+cRI8hifPi85M7YI1PCPzcXaY9sM+WBGwMnu8UAGnr4ocAP0/YieBsmLep7yzfNT7B8HGd3gZD+FlSDsvPySsEAQoP2NtMX5YwVQ92XG7nhnWebnrLA8bSmytDJnfEGq8QBAb6zmhvY3nTsaUBVgLpEgEp6xBSX6Mnk9vBMSAf1d81j/AslU5mCLj5qtdClTNf9ad8lwYU5+IHAukSAilzoJQXO8s2laJrUo3vPY+w23120dVcxGPpNQsFuIUqx9J2U7rlC8bZ+o5AusRAOlsHitPL1kYiLi4a3qLfn4vPL9Zn9uB8wPZ0JEd6zesNlIUqZ7HsSOUuXTATSK0IpNTRlm5HI99Yt28IpATSeY0SCSDWDRDyr8a/BFICKYGUNEAakKgBAqlEA9KITBEXaYA0QCAlkFI0QhogDUjUAIFUogEpGqFohDRAGiCQEkgpGiENkAYkaoBAKtGAFI1QNEIaIA0QSAmkFI2QBkgDEjVAIJVoQIpGKBohDZAGCKQEUopGSAOkAYkaIJBKNCBFIxSNkAZIAwRSAilFI6QB0oBEDRBIJRqQohGKRkgDpAECKYGUohHSAGlAogYIpBINSNEIRSOkAdLAX9xX/zfQRjYgDZAGSANz1wCBlAYSGkhJA6QBiRogkEo0II3icx/FyXZkO2vRAIGUQErRCGmANCBRAwRSiQa0lhGV2kHRIWlg7hogkBJIKRohDZAGJGqAQCrRgDSKz30UJ9uR7axFAwRSAilFI6QB0oBEDRBIJRrQWkZUagdFh6SBuWuAQEogpWiENEAakKiBRQVpjLcNjm/6L5yMdtNu7Huom4wcK9GxFF3MPbog25HtZquBRQPproDVaDu6EU/3BePh3kDtVp0eiveHwrDRQ04wJZiSBkgDy0IDiwbSGzt9UbxdAd/V/9Lb/Bz+hRs7/FB/KBzRXgTT2Y6MlJ6iKdLAwmtg0UB6f28ATkd76kFUgOr61f/C1QRfdByLMrp9yonAlTgveDr+zeho5RZWgKbv3SjZ/Fej5xdbaEu9fottHyp/4UFANpdm81mB1MPxP1Bb/RS3yi8bBZS3yz/R0foJZ05kGz0vdtZMIGVAXe8gR4KPI5IUTtO2tEAXvDsQzq+vivMUPrttOIM21VeUb1miIF3i9RPsSHtpnYvst3LsNyuQBnk64MfkONifIUw1EG3kzzW8r5UMUiE6NbU/u9UL95L9p5UTlf8anb0j+K76gcGv3ejseowjXhqgujk4YOeJG6htUaJ/ZAzK7o94cj4eoQ5T5+2dkPu4G3VF0dh5+iE+dI5gtHIvX4ab/X9D4PY83H/TjJ7+YfQ0P0fJrrXIuNGNtvJYvXr4hKfjxrMPaFMOQ/m5ES/KUrB5raaMmepHHW/ldDzytXX5elYgZc7f4OsyDaZiiH768BaeTn/XA4sx0ZiLSE0BVDjOlgVYHoZ5+26IRnruffSohvDsVCLS90QhYs1f4Wb/DyRcacMEp8Tb6wXITduN/D+eon1MhcYiDZDd7Neg8L0aQ13daK27gXNH03EkwYsvwzu+FF2cCu1PziIvLQnZJ0pR19OIxg41Rh8maeuxLqoATWMcOp6cQ17aTmQdu4RXPT8wVHMIG+z/ClP1M2wHfbeujkb+tG5/zhqkTBBimN69UYyOVk0kailEWR7zBVKWt7GpvZu9DBGJ+1GY7g8PeyEC/U/sfzQG7kMuQuwZbDUg5T5fQayTJg2fn70Hzn78geGXGQicupYdX7f5Ej6rdCB1s3fBiRoOysd7ECBK5x6WjyZuFBVJmjVdY/Vj+dFGNiANLE8NzAmkzNlimLL5/Gwgyq5faJCKBermJEdwcCB27ExBSe0IOOU1JIlAOlQRrwc1tzWpeMn9wJO0f+gft1fgSqsIpI578IzjUHVYgagQb9EWjzvdanw6o4luCaTLs7OINUSfyYdiDcwZpCwTAaazhSi7djFA6h2RhpvVrVB+V4ObVGGwtxX1bcPTQNp/J0YfmMGn0KxS4uo2XZTK2uBmb4PjNSKQBuWjSaXG5I9/G90G78Xx+RJIqROKOyF9Xv56kARSJoBgb0eL1kQNxbLQIHVz2IRbSjX63xXj2M5ABLtonBdZ2GgepC5pqOZ+4LGRiPRyiwikazNQoxrHg3028HFdNX1bo1k7JpAu/45jqGf6vrJ9KhmkcxXQ/INUiWsxugjSLeA4PqmGcTtBdMz+n8i4P31qPy0itffCuYYfGHl9ECFTd/hZuz23XUGn3hppIEo+q9F9PRqeojVSN0cv7E7dhEh38Rqpfv3make6bmV3YPL/0vC/dYLUNQUvODXa7+/H3jgFf4PIzSkWfw6q0fnwIJI2OMLXS4G9+VX4PKoyG5EysXrHFaNz4gd6aq/h4skcnLn8J5q661H/WReRsnT+aY/Qz33DizMJ2OrnhNDwaBy/34UJrhtlWzRrrG5G6kcdYml0CPID+WEuGlg0kJr6iajweJO5Pft5KcvDWKPZo05bjj5G56ganKoV50M0UWhg0iXUK3/w65ec6geUdUXIvtRgEUhZOX6bs3DzaS0a29rx6fVtnNrqhuOv9UHKng6IPnAd9UoO3NR66Wjve9xI88Q67dMCxutnrC10jDo2aWDpa2DRQGrqpSXiF5iY+sxedMJeeMLymFFkznYI8bXTn2Y72yEiIghbgxz0js+Yj4lHk9zs3XCuQQ3lra3T6uFm/3cofH0QFegIb0fdcoJeOUbqp3feRLmUZul3LPLRyvLRooGUCc3Ya/TEr9Qz9Zm9ao9du1BiZRHu1mPP0fzqJGJdNVBkv3TyjytGG/cD1YfsF6wuC9VmKmdlgYD8Lc3fiwrS5eQ8j9BMPPvyExND3ah/8xpvPvZgiPuBnqr9iDAVcVJESQMMaWBFaIBAOhuhu3pg9/5sFJ0rwoWTB5EV4yZ5eWA5DSZUV2lRC9nPeu1HIJ0NSCntioguCHjWC7z58i2BlOBIcCQNkAYkaoBAKtGA8zXCUb4UFZEGlo8GCKQEUopGSAOkAYkaIJBKNCBFDcsnaiBfka/mSwMEUgIpRSOkAdKARA0QSCUacL5GOMqXoifSwPLRAIGUQErRCGmANCBRAwRSiQakqGH5RA3kK/LVfGmAQEogpWiENEAakKgBAqlEA87XCEf5UvREGlg+GiCQEkgpGiENkAYkaoBAKtGAFDUsn6iBfEW+mi8NEEgJpBSNkAZIAxI1QCCVaMD5GuEoX4qeSAPLRwMEUgIpRSOkAdKARA0QSCUakKKG5RM1kK/IV/OlAasDqbH/A8X+x1Oom4xGXRo0SAOkgXnRgFWB1NR/Jq1OD8X7Q2HY6CGfFyPO1yhH+VIERRpYHhqwKpCy/3PP/t+97+p/6W1+Dv/CjR1+qD8Ujmiv+YOpm70jDt9vRd35CAI2RT6kgRWkAasC6f29ATgd7akHUQGq61f/C1cTfNFxLMro9iknAlfivODp+Lc5dwA3+zUofK9G/52YOedBEcjyiEDIT+QnsQYWHaQejv+B2uqnuFV+2Sh8vF3+iY7WTzhzItvoeXFjZgIpA+p6BzkSfByRpHCatqUFuuDdgXCw9VRxnrP5TCClzjUbvVBa69HLooM0yNMBPybHwf4MYaqBaCN/ruF9rVnAmQOpEJ2a2p/d6oV7yf4zluMTno4bzz6gTTkCZXcLqq9nYbvHX/lrjIHUzcEBO0/cQG2LEv0jY1B2f8ST8/EIddBcwzqTm6Mb9p2/jw8dSgwMDqLr01NcSXLVq4claVheuvoNQ/m5ES/KUrB57ezKog5uPR2cfLkwvlx0kDJHb/B1mQZTMUQ/fXgLT6e/64HFmECkgpQtC7A8jOXNjq2LKkDT2A/0VF/ByYxkHC26gffffmHoQx42OfwVhiB1s/8HEq60YYJT4u31AuSm7Ub+H0/RPqZCY5EG2G72f0NCcRcmhj7i3uk0pO1OxbmKRgyNvMGJQI0ILEmjqx+HjifnkJe2E1nHLuFVzw8M1RzCBntWP/NlmWo7HV+YDkl2Xp52XhIgZeIRw/TujWJ0tGoiUUshyvKYT5C62bvgZC2H0XdHES6KJn3iz+Htp2fI32AMpDJEJO5HYbo/POyFqPU/sf/RGLgPuQjh4abAlVY1vl2P1gLczd4Vyfv3IF7xD/6Ym70laVxwooaD8vEeBEyVxXfKsHw0caOoSPobLMmHOvLy7Mjkt8X125IBKROCGKZsPj8biLLr5xWkjnvwjPuJZwf+Uws8Q/EaRqTi825OcgQHB2LHzhSU1I6AU15DEg9SG2RVjoIbqMfNo7GI9tDAU+9aewvS8PXjUHVYgagQb9EWjzvdanw64wU3C/IRl0ufF7dzkv2Xj/2XFEiZcASYzhai7Np5BWlQPppUSlyL0a03GgrdGEi9I9Jws7oVyu9qcJMqDPa2or5tWAtSloeb1yace9wE5ThLw+FLQxWuZgfDVxRZmkvjxtdPjckf/za6Dd6L00S3FpRl2C76vnw6NPlqcXy15EDKhBDs7WjRmqihaOYVpK6ZqFGp8CjV9ONRhiB1c9iEW0o1+t8V49jOQAS7aJwcWdioB1KhHevWuiJmxz5cvN+CQdU4qnNcpkW/ptK4rc1AjWocD/bZwMd11fRtjf4as6l8hLrQfnE6JNl9edp9SYJ0rmKaV5Da+6O4XY2++zvhI4oU3UP2oPTGJWQFG1kjDTiOT6ph3E7QRbFu9v9Exn3R1N7RCVuT9iBp6sYSa7ubvR9f1vCfCZoo0pI09oEo+axG9/VoeIrq5+bohd2pmxDp/je4WZDPXG1P1y1PAJDffo/fCKSiX0GZu2vvn/YI/dwgas7txDZ/F2zcnoIbHyfA9V5HsrMRkDrF4s9BNTofHkTSBkf4eimwN78Kn0dV2ojUzTEat7+qMfLhItKiXOGvCMDeI7fRNs6h9ujaKZCaT8M6hKZ+3/DiTAK2+jkhNDwax+93YYLrRtmWf8CSsqhj/Z6ORXZcWXa0KpCa+omoqedGDY+zn5eyPEx1AhZNRmfdwqe+SXAqNTjVL/R/qsCxjf/UAM/IL5sCky6hXvmDX7fkVD+grCtC9qUGLUhZWYotx1DVPooJlWaNkxvtRc2VeISKIktL0rjZyxB94DrqlRxfP7ZeOtr7HjfSPLFuKi9L8jHVfjq+suBA/rbc31YFUlMvLXm4NxDmtqf7gtF2dCNYHuYExJ4P9QvwwUZvuRZQM13j5myHiIggbA1y0Jt2i6/h8/T1QXToWvg66ZYCZpuGpXez/zsUiFZj0QAADGBJREFUvj6ICnSEt+P0vCwpS1wufba8Q5GtVqatrAqkTMTGXqN3MtoN5jb201B2LXWEldkRyO/kdykasDqQSjEGXUudiTRAGpiLBgikK+hVX3MRCF1DYCENmNcAgZRASssZpAHSgEQNEEglGpBGa/OjNdmIbGTtGiCQEkgpGiENkAYkaoBAKtGA1j7SUvsomiQNmNcAgZRAStEIaYA0IFEDBFKJBqTR2vxoTTYiG1m7BgikBFKKRkgDpAGJGviLj28gaCMbkAZIA6SBuWuAQEoDCQ2kpAHSgEQNEEglGpBG8bmP4mQ7sp21aIBASiClaIQ0QBqQqAECqUQDWsuISu2g6JA0MHcNEEgJpBSNkAZIAxI1QCCVaEAaxec+ipPtyHbWogECKYGUohHSAGlAogYIpBINaC0jKrWDokPSwNw1QCCVANKic1fw9Nlrfjt7/goU64NoZJdgT+rIc+/IZLvFtR2BdI4dP+NADrq6lWAwZVtntxIHDh4hkM7RngSCxQUB2V+a/Qmkc+j4AUFhqG9oxYWLJVpwnrtQjI+f2hAYHK49Zok4FSGbEOofMKtrLMmX0pjpGCFRCA0gu5NOzOjEQj4QSC0wlK9fMK7fqtBO4xkw6z+2IDA4QgtABtD3H5vxqbFdm+7GzQqwa02J1dsvExX9aozVnUO4wnSn9lZsQPafXWi8tl+b184/GtD6tBARM1xnqtyVftxbsQ+3v6ox/vEyNpL9tJpa6bqQ0n4CqQUgPZZXgNb2HhSdu8xvucdPI2TDxmkCZMdYWiEduybvxOlp6QSHeSuise/yA9w4lgjFDB3aWxGO/LdqjFUd1eaVWjEMrqkYUTNcJ5Szkvfe28vQPP4V5bt0A5W3IhJ7Lz7AjeNJM9p9JduN2j67SJVAagakLOpkQMw9UaCFmCAyv4BQbI9Pwvb4XfAL3DDt/NG8U2jt6NWLXIVrZ7MnkM5O1GLbem+/inZVH66JQCo+T5/nbluync52BFIzIA2LjEZ3bz8y9mfrgTI2bic/vf/ybQi9Xwf5z+yYWFxpmYf4a0NCI/WOC2lYRHry+Tc0XU3TOx+69woevu9Az8AoelvfoSwzAadMRKTxKcWoalJCOTiA1vpq/JGxZVqUFRhXgNuvm9GuHIWy5zNe3yvCjjBdhCbUh+2FOn34IwXbch/iXecg+vu/4mPtA+TFhWnrqUuXgd0Xq1HfPYaxZye058VlfvvcjOo7hYgL1pWpu37mcoS66fIbgbK7HdW3TiI2RJOfLi/9umw79wFdX8fwXfUTg8pv6Op+jbyIAG0bDe0+Uxm8bfxikFnyEvVdAxgcHkF3cy1KMrdo2yzUlfY6wKwUWxBIzYCUCeHCpVL+RpL/VNS53j8EH+pbcOvOfT7aDAoOx80793mYsiiVXcMi1PpPrbh4pcxkR/NWbMbZj2r0P8jSpvHfV4Eu7gc6XlzHycPHcPRsBT70dqK1x8jU/msnWrrbUHHhFA7mFOLS0y6McMN4eFAHbsWOMjSP/URv7V2cPpqL439U4oPyF4YbrmCbrw5sguCFOg22tKGtqxYlBXnIyr2Am++HMTHWirOxmk4ipBvq/orW+kpcPF2AvLQ4vh2KneV8md01d1B47CiOnLmFV70/MdJ2Azv8BPhp2m6uHFYvTRsm8fnFDZw8fBQ5hbdR8+UHht+d5Zc2TNUlKDYDB868RK9qBC8uHMaBrDRsDmQgnW5382UEYdf1L5gYbkXFxQJkHjiJi5XtGB5pQMGWlQcOQS+01/ieQGoBSNmNJDZF35euAV5cwi4+Cg0K0QGLwbT36wDiE5N5mKRlHERbxxew46bEZtihvRUxONfwEyNvzujdfPLddRddKiMgVQ3jzwzdkoK3IgI5z0bBdd1CvIIBYwtO13EYq7+ETSJoBu67gXctb1G43TRIufFGFG7Snff2S0Jp+y8MPstDEJ+3BkZc110kip464Mt8P4mxDxcRJSrTJ/o83o//wPuiGN4eQtvNl7MFBXUclM+PI1S8Hry9FM3cd/yZGaQFo2FdmN2NTe2FsoUBjNXZfBmJKGlXQ1mRofUnuy417ziSokzfUDTlezpuXYMPgXS+QJp5aPYgDTiJau4nqo7od0xvxQ6UfjYC0r4H2C2GC2tL5hMMqppRGBkAb7/jeMH9wou8EG3nN9eBBchwb4oQaJD3pout4JQPsEcE0qFK/SUPTZk/8SJXE5kL5XkrQnDs1U9MvDoFP9H1Zsvxy8MLjsPzgkRsjYkXbdm416NG0+U4LUgN68LKtgikFpURjpxn4+AGW3D79EHEhOn7SGgn7a0LkJb6k0BqAUjnMrVnywCzndp7bytDi2oAN/boIkEeBopwnHpnBKQtZYg2gJ13HLu5MoAbuwPgvbUUzapB3DTIbyZxCCAdfHRoGnwVR19jQvUWxwKMT4/5uvJlTm8DO7f7dj+49mvYJgKp2XL4/NSY/PFvoxu7XqizEGGK22cRSC0og29bRDouPuuAclwNbpLD1+ZaXD+ZzEfo4jLp88qDKYHUDEh/x82msIjN06DEd0yDtTrvkELUqlSoPKgvRG9FHK60GgHp1wrsNARp6gMoVe04tzkA3sEsvx94km35T1cFKE28LuAjRzEUwos+gRt+gn0iEBrCyzv4NGomJ/EoS78NLJ+sJxy4t0V6SwNmy+FtwuFRTjj/Ywe2zKK3Beqm9oZ14W1s5K690EYhvcbuM5chtoMieAsS0vJx5clnDKo4vM6nG05i+6zEzwRSMyAVHn9iz4caCsTc40/HcjWPP4nXUsV5TOvQimRc7VZDWZkDfxEgvbdeQQNnBKSqLyjdoQOWtyIIu+/0gRt8glRfFjUmoaxTjb6nR/Wn6TF5KK+4jZxt+pEvq5tQJ27kNQ5N3RXXHI/G6ToVxt+f538EIKQTYCS0i5XJliGmtSHwIB4OqPH5mmYNWbjefDm7UN6lRve9DD2we/vFITU7HZtDLQGpflQulC3U3VthQRl+0YjLzMNe0Y0lb8VO3r4jj3OmaUOwB+11+rRmWxBIzYCUOX+uD+S3tHWbeSB/+t3jiJPvMMIN4dXlQ4jbFI3oXSdxp7kXX/uMgHRgAF1tVTi5Nw4RUYnYd+41erif+HhBc/ec1T308CsMcCN4U3IU8dFbsCXlJG43ceC+PkIqP0UPxu6SVnR3PsHBMN2UfaxvCO1vy5GZsBURW/fiyK02DKsGcC9Ns/ZpCCNxJwnNeYl+bhi1JYeRsDkaUTtycOXNMCaGapAz9diVcL25cnRt6Ef15RzeJpFxGTj15AsmOPagfbAW/gIYxXXxDmLrzmp0PDmDtNREhJmIpjV2mqEMvwzcU6ox0nALmTu2IHRjEtIKnqJ9fBJvTm8lkFrQj8R+sbbPBFILBGD4E9GGxnaTPxFlPx8V3ghl9ieiBlN7Ji72q5uk8zXoGv3FrwlyEwOoObcbJ14aAen7i0jKf4XuMc0a4sT3AdSW7Ue46G65tyIUMcefoHFABU6lBqf6hf6WZziRKAAxFBn3BzA28gEno3Qg7X9wAmk32jDAafIeH+rAn3mJ2khZAKFReCk2IDavEp8GfmjKnPwBZfNT5Oo9hyoMIjOXo7HJBsTkPcLHvkk+P7ZeOvq1CbePxPHPzM5cl2BsP/0aXWOs7V24FCNuo+6xM/Yz3JnKYPUI2nUZzzvHMaHS2IQbU6L2Wg4iRbMHawMEtceyiJpAagFIDcX0u15awh53utikhvJP3W/ohbK8/cIRGROPiGDz65uKoE3YHBuDoKlnNIU8xHtvRTBCNidgS2TYtAf22TnfqUeYDKHktyEG27ZGw18EZ3G+M33WlBmPTUbucM+lHLZ0EbQpAdu2bIL/DG01WqeASEREReotDxhLZ64M9vRByKYExMRuRZDosS9jedExyyBkDXYikM4BpMzxUl+j560IRGDMJbwZ1zzCs1TEZAi4+arXQpUzX/WnfFcOJC3xNYF0jiBlxpXyYmfv5DvomVTj+9fnOBg5/aaPJc6bjzQLBbiFKmc+bER5EkQNNUAglQBSQ2PO5rt32C6kpe1FlOj357O5fr7SsqnrtrQ8HEyKntcbKAtVznzZifIlmIo1QCBdJJCKnUCfqVOSBpa3BgikBNJ5jTwJEMsbEOQ/y/xHICWQEkhJA6QBiRogkEo0II3Ylo3YZCeykzVrgEBKIKVohDRAGpCoAQKpRANa8yhLbaMokjRgmQYIpARSikZIA6QBiRr4/wF03XMWRWgKLAAAAABJRU5ErkJggg==;" vertex="1" parent="1">
          <mxGeometry x="222" y="336" width="138.51" height="134" as="geometry" />
        </mxCell>
        <mxCell id="HgCGJ1RKAsyM8t96xPIt-9" value="" style="shape=image;verticalLabelPosition=bottom;labelBackgroundColor=default;verticalAlign=top;aspect=fixed;imageAspect=0;image=data:image/png,iVBORw0KGgoAAAANSUhEUgAAAVcAAAB6CAYAAAALdBBEAAAgAElEQVR4Ae19+1ciV9b2+48ULtSF6OcFFoLgx9XLUhAUbAUUFheRS4lcLLunYybTuUxmOj3zdmZl0tM9yWTS3aZj0nx/5POtU0XBKaqQwtZ0a84PtYrLoersvZ/znH322dT+n/8zYwE7mA5kDLj+r5/hgY0JhoFrwMD/yIOKnRnBEgwwcmU4YFxwPRhg5HoNM9RdAiMj1+sZWHcJE0yWq2Hif6zzThhGRtnBdMAwwDDAMHCNGGDkeo3KZJMUm6QZBhgGZAwwcmXkyrwVhgGGgRvAACPXG1CqPHOxM/NiGAZ+vxhg5MrIlXktDAMMAzeAAUauN6BU5q38fr0VZntmexkDjFw/AHK1/aGOe/Ex3d4DZzBiZHwMBoNR929kg7Pz3R783OgYRkYZLj4EnDNyvUXkyo1Mw1FPI/O6iUorB+/U7R1EnIGRwE0QwFS5CL7VROF5GuuRaTYBv8fxrYtcOXcaNYHH8uTtHcw3AeR3veaYfwWRJyUULgRUznnsfbqBeUt/D9aUyqDy9gjbRR9sKxaMGy+3B7eVQKVVQMB2ebt3lWPY33OGGfj/1gB/UcKye3DftOSYrfPgX27Dyrx3xeplxGqFNeTDyuMq+IssPDOD9Tus/Vh7fasfRq7vaWbjbCtIvGki+1kI648b2Lu/hs1nDVSebWKmz7LOIlTBf7+FGZ2EokVKH8LA4AzT8PylhvL5AQKLgwe/lhyMXC8f4NzaNg5bPNY8g/X7IWDiLvaBket7IteJgwPwPyfhGDWiE3NdjuGgdYR1n/aAmKmVwb++p9tb0yKl2whiLTlEcv0xBovOieY2yv0ufR6Jp8C3cvDc4tDRu8j/IfxWRa4kFjbliyNVEVBtCMjvR2D1p3DcExYgmyrj1nVEszWUGw9RPa4hGV3GNOV1cUYvdhpnKMecIO1lgTnjIqK1M5R6Ppe/v+xsizZR53cwR1/PuYeqcIw1agnEGcywrqaQ5gVUT85Qa5zgIL2LxRnljK9HDtIfzrqNoiAg4vFiI9vAUeMByuVDhN2zGKH6YjCaMDqmdYzDONLVgfmwAP6XNBbNFLkOIHpTLg/+7R6cGuEAYrfJnRgSL2oovakh9UUIlngc5Z6wgCgvCUf8rYyD8yZKL8vYEQKYGu/2jRt1I3ou4OB0ocduLkReCTgQHIrPL7OX/N3CJ00c/b9TxcG/2YWd1h3Rs045RHL9bwwLoQh2X9RR/ukYmcdbsFvVYZUx7xI2viohf95A6RUJv4Rht6nbyX297GwVVw9RzFL95kK7KLVKWHFSOjSYYcnFkfyuhvKvAipvSP9icC1o4G+APUh/ON8mcq1jhLbdCD7hUfy5gcLzDILRGSX+2hiaOR5uIr5MZvad0mZ69aEiV4MlhoOThyjuR+Fz++Fe30OiUFOT6+Q6Uo2PUEpvw+/xY3FlF6naGSrJAMbbwCMDxRm/j3p1V+ltORKoCCeIzA/fab3kOuLaAy/cR2prDS6XBwueEKLFP6BW3lYODB1yiOAWyfUUhXwO4ZUAXJ41bGRPUG9WsER5B77sn/DZZ5+pjk8/fYjEAjX4nCGk3grIfxnC6p/1ZQsYE2nwrQzcE93rdAztiSDztoncn8PwxLxwFXax801ZTa5iOOIE+cdb8G574czGkHwtoPDIq7DbwicN8D/EYKEmBMP6PRy2qggtD2+38UUX7KHFzuH9mIcWuRp0yiF5rmUk/7oN/z0vnOlNxH8UUHm6DjNNfNYl7J4LOHwag3/HC2cihNiLJirPo5gb09DjgAlOL7mOhHdx2Koj2VjGQngR9u01RL5toPJiUxHWkcJDl9tDxJ9IrnVkn6YQzHqxEFtB8Mkx+IsD+DVi6o6PG+C/2VDoooOVATKydsPjW0tnKnKdCddQr6fgoLyj6VAV9R7PdWbjGPXaPhaodmP+PI6FEgLmLmhHFlM4EprYaAOAeE4iQVbjsFGDQKtzWp/pJVexz/U9zFP3GJlywOlegJnqs145JM/1DHvL5q4HblpHSjhDMjDR+cw058TCgkvjWMA07R0axmDe2UHq/ET05orPUwhlHDBRfSO6Ghk3wWgyYWzWAvejI1S+3cAUJZOso5mjMvjzBOwUYUxVyM6xckNrmi+BfxWHnerLWDyF8ts8fLOU3bYSKLWOEPRLn5G+WE+r4P/bQ7hXHKjirraG56pXDpFc3+bgpVYro4k0Ki2lHOZCAfxFCi4Kk4bAFnKtOsLrXXllPQ466yXXKaLn810FxkdsdixsOWCmVnd67SF5rgLiKQp/0ytItATs7HXxJ/d/sniIynkGft80xs0ShkYobMnt2Pl6iFRLjypydeycol6KYpoawJxHnS3gjD9EPR/B5JgJRvmwxXAonCA83wWtHBo4jNhFAuIMDkSOSKjANfTSkgigl1yNrn3wwinS2xH4vF7YrNq767rlkMMCdko2AwlvPEB6fa5DrlpKvuwzzjQN75cNHDwrovDrCfKfemFq655s/Cx9I4jky7cayH0VgY3ykunr2h/Wwf8roiBeLppUZQs4/tgE/3UIZpM04AhxG/0RZFvHCC5RsrVDA7nafNtudoR+UIcK6D4M87ofueqVQyTXl9uKmCu3EkOBbOJ4u3JY79fA93qLRL9GEhbottPbd73kOhJpe64PQvDec8Pqn8M4NfHJ99NtD9FzrSG00u0zZ3Ah8rKB5OGsCn8kbW/xEY9KS8IPCcnE011ilu/Pzr8pud5HvdhDrhqpWIvJj9A4/Vh11IVTbDpoALRDA+WYuBySPMCrhQQIEPSSK2eYgG01iWSBxISlvtYbDcRX5xUxKt1yyORKTRyawNQZc6V/K21ojWMikUKxVe2QHAmrTLgdsC47YN0IIPi0jsMv/J3lO30N+0eEXMNKctVIxXI+kjxlVfyzVcfGqtJuYmjgxaY40XJ+4u0dI7RyPWDsS6465ZDJlU7F4pYJuSo3BIluCbnSzgKtt2Ff6yVXgj9Lbgc7/yCxbUnn/M88trNWRe6pbnvIMdflro0u6/s4wdJFCeGUG7YVCUPTs1eLM192H/Zd//Hwbp5rcQeOeSdsisMBM7XkJMqXQgM1rM8aMRuuo05CAlfwGsi1rFtN1I92lB6Lcw/HQhWr09rA4wyjMJosWNjiUWsewmfqthM9Vx1ydDa0BpCrnpgrGXjWVBjLW5LHK2cLcKN+3GsJiGe0PQxjguwAp+Gm+i+DW6/HJ3pK/4zBTghbcczDTC+did3E0EBZ3KiZqVXA/7gN6xXtJvdTPvclV50euEyudLaA5LkeYV3luUYUcU65D1c5W5pH4P8TU26ohndRbhWxRK1q6GsT/I3MzMHePETll6xiB1+vPTobWjrJVbzuNyEWc71i2Iq231Vfq8h1qJgrITlqsHEmC2wOuyKmSTomhwayQQ/WS2coR12K2ZvuPDe1hGiex360u8FCf29aLaLeQ5CTQR71Zg6LVExp0hNFOOjpLLHFfszvoCQ0EJzrkqsYc9Uhh15y1RNzFTf6HjXBv9gSc1plch0RvcMmtiLas+F4Nge+lYJLY3mpN1Ypxvi+j2GOttvUHCyr85jomRTlrIH90iJWnkkhgX5/ueVsfkT+XkC86db0rGkbktf9yFWvHNox15Q65kqyMi7SumOug+QQbfBrVvHvOHOpAP7XfYVdzNEwgsVFJf4CURz05J7qtcew5DrXOBI3JOmsml4bsPfa4+y69KIiV4NlGwVBmS2QLDZU/9DixF32hzhMbsHn9sIViGC7+AA1Xkm4pKOdrIFiFXmSzmTvL9RkiBdDDXWhqPAwZYG5iWUk62eo5HcR8PjhXttDvnGG4o4Ho1Sc2BQ4wLHQRCK8CpfTgwX3GsL5U9RraSxQGwp65dBLrnI/B51HvGGkLgQcfruHe982kP0qidQrAeV/hhXpbPR1JOJRbpJ0vvduIitnC0Tb2QLPjlQx186fFz4PwxN1YyERxBbZxf4uijlqciLXJXYTQwPPikgNCAlMlg7bseEcPDr+ydePXA065RDJ9ZzH/uN2tkBKyhYofx1UeGucdQnxTraAp5st8CIGS89kQmQeJAc368fOuYDC0xh82164DnaR/klA/uEijBT+xvfSKL+tYqfazhaILiP4v3XwrxOKzUS99hiWXMf2M31XOR3MvEev7vfQBxW5coZxTIt5rqeoNk5xkI5hPqDe0BLzJW1BRHPtPNdaA5lkFI4p7biOFBo4Q/04cWlIYMS2iWztAcqZUN842Zh1rZ1f+wfwR1UkNwOYUhHDDBbCWeT4+zgW81wFHB6ksDSv3FnVK8d1kysB16g7gPVPMsi8OkHx3znEGkuY7lma0yC0kN3677T/oUWIcCq+jcS/ayj9XEfmcQS2PfXfX0V5/atSnutPTZRe89h71D/vUwoNCOB/vKdYpdD9El8HNrD/qoHCkzVMUV6xql17QIseW89uOmmrVw45LODaiiLxXR3lNzVkHkfh0MhfHfMtIyzmuUry7n8egd3WZ4LXIceYt50n/FMDh/8pYqfhw2QPUZMNJfvRHlLf19t5rjXknsbhX9LAnw57DEuunJg2V8Gqjn/A9bMR+7wPRnROSipyZQp9N4VeRX9yWGDQb81FssQtYD04g/GJ2/tULBJzXvyiAf4fQUxQ3t4g+dn3g7FJnoo1Oj0Hx2lRtWph+husv+vUESNXnbPQdSq991p6yZUz2bH8pIpySxD/2nibnoo15lyQ/kCw6YNfyKPQIn+cmFKlEPXqhr0fjhBIuIVkgvC/VLFbsitCFUyXw+nyXfXFyPUDINdhjEiWzaPWOcwuaeftDnOt37ItSWESB/1FHflnGYSSVkWM/Lfsy12+F3kqlsVvwYT5tyWSu6zTq8rGyPWWketVDc1+x8iGYeC3xQAjV0aubGnOMMAwcAMYYOR6A0plHsJv6yEwfTN9f4gYYOTKyJV5LQwDDAM3gAFGrjeg1A9xFmV9Yt4dw8BviwFGroxcmdfCMMAwcAMYYOR6A0plHsJv6yEwfTN9f4gYYOTKyJV5LQwDDAM3gAFGrjeg1A9xFmV9Yt4dw8BviwFGroxcmdfCMMAwcAMYYOR6A0plHsJv6yEwfTN9f4gYYOTKyHWg16L3wTIywMljDUfGb+9Tu2Q52Pn3R9rkqWIj1POe3wUDjFwZuV4buZJnmDrqaWReN1Fp5RRP638XkL6P35IH5FzXIHsf/Wf3vNrEID7EvdVE4Xka65HpvhVT9OhXF7lyGgUK9Vyctbmaga9Lb+9qtzH/CiJPSihcCKic89j7dAPzFu2HoZM+m1IZVN4eYbvog21l8FO7OI0Citcl+7tchzPMwP+3BviLEpbd3ZJA/a6pJYf8MG+6gGK/37PP38840bIbeaqYNeTDyuMq+IssPFTp9mHtxMj1Dnuu70KunfIjn4Ww/riBvftr2HzWQOXZplj3SwtoFqEK/nvtSgla7bXArdXut/6MlDT3/KWG8vkBAjqe5K8lByPX90OYw2BFy27y77m1bRz21DuTv9N7ZuTKyFUzLDBxcAD+5yQco0Z0Yq7LMRz0lK6mgTZTK4N/fQ96vbXLwE1f90N/rSWHSK4/xhRVij90OX5v/dOym6yDkTiptJxTVOqVv9N7VpGrWMNIrKEloNoQkN+PwOpP4VjgsUwVnhNrMVnX27WsHqJ6XEMyuqworidXfS3HnCDt5U5xxkVEa2co9Xwuf3/ZeS7SQP04jkVnDPsVUudLwEFmBwuTyuUqqQU2E9hFsthEpfEQR8d1pOMR2Ca6/SD34QxmWFdTSPMCqmKtrRMcpHexOKOcefW0EyvTFjcxaTCCMwYQb56hcm9RlJub2UT+JN+pUEvKLY/bQojlSQ0yUgushr3tVcz21mKybqNIijp6vNjINnDUeIBy+RBh9yxGaJ2SGlo67GYwmjA6pnWMw0jVvjKTqqm/pLFopsh1wERkyuXBv92Ds6eemaTnMUzuxJB4UUPpTQ2pL0KwxOMotwoI2Lo2kWp8tWtUnTdRelnGjhDAFKUXuSrtwelCD65ciLwScCA4FJ9fhif5u4VPmuLDvMkDveWDf7MLO6XjYeQQyfW/MSyEIth9UUf5p2NkHm/BblXilFxzzLuEDbHGVwOlVyT80r+mmdzffmfZY3aGIoi/qKH8htxXXVtMrJWXiGHn2yoOf26i9GMFyT8GYZ3t2kKS1wxLLo7kd7V2LTByvRhcC+rxMaidWDn32YY0Psa82P5VwOEfXNL4WAgh/bZb2ZiMj7GlNWz+vYyDc1KrrIz4/SXM9NSY69QW23Yj+IRH8ecGCs8zCEZnVONDD/5kvc4cD+coyL+jzypyNVhiODhRVn9NFGpqchWrv36EUnobfo8fiyu7SNXOUEkGOqWVCVE74/dRr+4qvRlHAhXhBJF5pYHojvV7LZJrrYZ0Ko4lct/lbexXz3B8EBaNJv9uxLUPXjjBXmQdi4teOP0bYnXaalZZHXTEtQdeuI/U1hpcLg8WPCFEi39ArbyNWWpg6WnHLSTAN/axQMh1LobDYwGV/IZYXplb3MdxJda5JjcVQqr5EUoZSX/u1R2ka2fg95c7+iOySIURT1HI5xBeCcDlWcNG9gT1ZgVLU9RA0Gk3X/ZP+Oyzz1THp58+RGKhez3OGULqrYD8lyGs/pmUZFGTgqxr+WxMpMG3MnD3TGDi954IMnJ12li7Ou03ZTW52laQeHOC/OMteLe9cGZjSL4WUHjULbVOcCVWpf0hpiyaKBblqyK0PDyuxhddUhma0KJ49n7MQ4tcDTrlkDzXMpJ/bVenTUvVaStP11XVaXc71Wm93eq0z6OY0yihLuu631m876sykn9R3re3Ku5IZBeHrSp26ytwbrqxEF8XqwCXnqwq6pqNhEm7OpKNdhXb7TVESLXgF5uYoceHjnZi0cQ3cXHC4twR5F4eo/B0XRofkTjKLyKda3Lza0j8THCwKeLAlY0i+VLA4Rd+5fjwbSLXqiP7NIVg1ouF2AqCT47BXxzAT03aeu0m69XxcQP8NxsKW8nf6T2ryHUmXEO9noKD8j6mQ1XUezzXmY1j1Gv7WKDajfnzOBZKCFCzi1T1tYmNtqDEM7FFm6hX47BRxtHbYZFchSL8pi4RjAYOUBPKCNCDetSMcZMJIyOjMI6ZxGPMn0NNKMBLgVaUrb6HeaovI1MOON0LMFOy6WnHmUNIC2UsmY0w+nI4SqSRqO/BYTDCvFZBbW+pM5tq6W9U1J9SDolcz7C3bO56/qZ1pIQzJAPdSqJ67Waac2JhwaVxLGCa9g4NYzDv7CB1fiJ6csXnKYQyDpgonRBbjoybYDSZMDZrgfvRESrfbmCK0qVsV6kseAJ2SvdTlSL4Hs9VrAr7Kq4oPz0WT6H8Ng8f5VVJVWmPEPRLOCB9sZLquP/tIdwB3rbcv95zv9LfeuUQSe5tDl5qQ2Q0kUalpZTDXCBFJ1NwUWPGENgSCSO83sV4b//6vdd7X8P4BManpPExYmrbMLGPylvl5DjFl8D3VOkdsdmxsOWAmUpZ0tOOm1tDsnUA/6wRZNldfJTAzvku7CNGmAsHqHzh7+zOTx+VwL+OK/AySnDQoz/JcxUQT1HjY3oFiZaAnT1qfByVwZ8Pxp+s18niISrnGfh90xg3S/oZobAvt7vsrCJXx84p6qWooqw151GX1nbGH6Kej2CyTVwigdliOBROEJ7vgkIODRxG7JL7b3AgcnSGcsw19NKNCCJ5rnGFJ8zN76IiNBCyUvcdtcG/y6PSPEPj9OPO0TtJGEUP9xTp7Qh8Xi9sVu1dbj3tOMMionUBkXmj2M/MegDhIx7LU0bYt09RiMx3CFLUXyGimBk5i4b+5LCAnZKN3Kf2AOn1uc719NrtMjBofceZpuH9soGDZ0UUfj1B/lOv6GmQtmTjZ+kbQaqN1Wog91UENtqbpojN/rAO/l8RBfFy0aSqQqnjj03wX4dgbg94QtxGfwTZ1jGCS5QORt2IngvI1SSdcgY7Qj8I6A0VaMmk57N+5KpXDpHkXm4rYq7cSgwFskni7cphvV8D3+MFkonCYCQrhW47PX0mbfrf9wjr1H05kxXejwtiJogcBhFrnPVMdpKHW0fyQQjee25Y/XMYpyZIuV962nEGFyLnNYRWjGI/9w69CH4vhYVIXD97bO3imeCgpzow540g14sD0XOVrin3RbzPywaSh7Od6+m1W+caI9NYfMSj0pLwTXQTT3cJXG532VmDXO+jXuwhV41UrMXkRx3CUpLXKTYdXVB0QgPlmOjyS57Y1UICRBA55kp7vTK5brTJldxT9I6bx4gue2Cbd0pHqIBajwdOyjzbVpNIFkjsU5Kp3mggvjrf8TLJffW0Iyk8ywdnSPqn4E3fR9Rpgi/9ADGXGYHsR9j1dpfWRH/1g7BiCSaGEoQe/cnkSk1YWgZ17Oizm96YK30PaUNrHBOJFIqtaofkiJ4n3A5Ylx2wbgQQfFpXLdvk69g/IuQaVpKrRiqW85HkKdMDXhr0dWysKnElhgZebIqOAOcn3t4xQivDhwTkPtLnvuSqUw6Z5OjNPW6ZkOsR1n1dOYhuCblOa3j7dH/0vtZzX2I30cu/KCGSWZTsR2xYyqgmO4J7S24HO/8gsU/JNvzPPLaz1o6XSfqmpx2ZjANfC9hJTsL9lwYiGyZ4/trAZsQM35MTbO90xwfBAf+1svQ655FCAAociOR6jNByV6dautKLP/m34wTrFyWEU27YViSMT892+ye3u+ysQa5DeK7FHThk4uqcHTBTy0tycyk0UMP6rBGz4boUErjCrEyudannapEUTLyY8NEZjna9CgAY3BkVudLKIUF0o8mChS0eteYhfFToQW87x+4DFCJrksc6aYR1q4lcaBmRah3rc10AXOq5UrEiaTKSvGG6D72v9XquemKuZKBYU2Esb0mesZwtwI36ca8lIJ7RnsGNCbLDmoZbQ296PQfRc/1nDHYy2BXHPMz00pngaiuBUquMFacRM7UK+B+3Yb0irnr12ZdcdXrgMslZKNKUPFelByl5rt1YY28/hn3f/75dj5kzzCP4vYDix27l+NBYSdD3J+NjZGYO9uYhKr9k++6kX9bO/nED2doKgv8pIGA1wtI8QqoUQOiHClaptDcRB5qea3dyJ33rbGgNIleddpPlFe//TUixspS/03tWkave2J0YMzzaUWwocCYLbA67IlYpKsDoxU7jDNmgB+ulM5SjLqVRqeUjN7WEaJ7HfrS7gUELoxlz9ecVMVfOYBHvU00GOt4nma0tm3VV7HjSE0U46OksdcX+zu+gJDQQpMhQbzvzOo/jVB579T0xcE/iwcfJLJLNHNxUzEYz5urLSTFripz0kqteu+mJuRJdOR81wb/YEnNaZXIdEb3DJrYi2t6huBvc6u740nbTG6sUY67fxzBHkSQ3NQfL6jwmeiZtOWtgv7SIlWdSSMBAkRl9f87mR+TvBcSbbsWGCN2Gft2PXPXKIZKcKuaaUsdcSVbGRVp3zHWQHHruyxnmsPpcQOlR1/kgNp9rVFQxcHM0jGBxUTk+AlEc9OSA6m5XPET5Lynsnu+I+xyje2mUP9/Dzq/7cFEx3E7snQpBdGKuVBxbL7nqtZuMgbnGEfgfYpjrgye53WVnFbkaLNsoCMpsgWSxofL4ODFb4CEOk1vwub1wBSLibnyNVxIuubk4WEnWQLGKPEkrsmsPTtJ2MsSL4Ya6UNT0HKWwQA3pdP9sATJzzkVqqJ80kNhYhcsdQGCzgFRJnfVgIuQnNJEIr8Ll9GDBvYZw/hT1WhoLlLH1tjOQrIDaKfiDdpaAbQflmoBKOywiG4ObCiLV+AjFdAw+jw/ulXtIHZNsiyXF4NdLrnrtJt9/0HnEG0bqQsDht3u4920D2a+SSL0SUP5nWJFuR19HAvCu9kaldxNZOVsg2s4WeHakXoaK2QJNZD8PwxN1YyERFHexK99FMUdNTuS+BFdiaOBZEakBIYHJ0mE7NpyDh0oppPtPv+5Hrgadcogkd85j/3F71z4lZQv07tpz1iXEO9kCnm62wIsYLD2TCenfIDkkz7WM5CX3JeNjluQk/3qEe0fLcEZ98DUySD5TZ2+ME/J7W8VOtZ0tEF1G8H/r4F8nFJuOetsZSFbAeQ2HT9ekLIGlGA5e1XDYExrhbKtIkmyBv0bgiXngymwh8VJA4XMfxijC00uueu0mY2BsP9N3FSa3GXRWkauY/ybmS5Ic0lMcpGOYD6g3tEjQfdwWRDRHYpUPUa01kElG4ZjSjktIoYEz1I8TsFFeSW8HR2ybyNYeoJwJacahRHKt7mLRdQ/7/CmO23muzt48V6MF7lgRhdoDHDeayCY3YPHtq1PKDDNYCGeR4+/jWMxzFXB4kMLSfHenkfSRxFN1tZuOIC9Q+a2mNewLZ6glu5kC0vWMGJ8PIibqr53nGlvFLDVTi+10xlz12q1X35e9H3UHsP5JBplXJyj+O4dYYwnTPUtz+vcWslv/nfY/tAgRTsW3kfh3DaWf68g8jsC2l1CTK8GVfxWRv5Vx8FMTpdc89h71z/uUQgMC+B/vKVZRdL/E14EN7L9qoPBkDVOX4E/+neg59eySk+/0yiGR3DZcW1Ekvquj/KammW9KrjnmW0ZYzHOV5N3/PAK7rY8DMkAO8b4/xOCMbIm67ndfbnwOrtMcsi8bKJ9Xsf/pOuZ2dtX2GJmG/WgPqe/r7TzXGnJP4/Av9YwPve3sIaRbVH7r5DLiLQGVz32dVaakZyPGA+08158aOPyB5Lku989zHRAW0Gs32f5i2lhLGaqQv9N7VpGr3h++r3aS53q1NK731efbfl85LDBIDnORLHELWA/OYHzi9j4Vi8ScF79oqHarB8n/IXwvkiv7Z1gnS2BYm5CnYo1Oz8FxWlRNNMNei5ErFe8dVnm/l/Z6yZUz2bH8pIpySxD/Oujtk5b1IeptzLkg/Ylg0we/kEehRf44MXXlQbVcpXcAABpqSURBVPq+ZJQ9ZjpL4X315Tbel4SDxOyUX6rYLdlhpEIQw8rDyJWR67USCFl+jVrnMLuknS88LEB/q/ZWoSoNqos68s8yCCWtGH2HgfVb9bv3Poxc+4RTdI5z8lQsi9+CCfO7XYfY5daRay+Y2Pt3BwHTIdMhw8D1Y4CRq84ZjYHv+sHHdMp0epcxwMiVkeu1hgXu8mBhsrHJYBgMMHJl5MrIlWGAYeAGMMDI9QaUOszsxtoyb4hh4G5igJErI1fmtTAMMAzcAAYYud6AUpkncjc9EWZXZtdhMMDIlZEr81oYBhgGbgADjFxvQKnDzG6sLfOGGAbuJgYYuTJyZV4LwwDDwA1ggJHrDShV9kT0/idfbi/VpLq9DzyR5WBn/Z4YeVDICPVoS6Y7/br70HXFyPUDIFduZBqOehqZ101UWjncpgee9AKcPFuAkYV+ghCfG9tqovA8jfXIdN+HyPfqmb3Xr+P3pStd5Mpp1NB6Xx2+zvvORmqKOmD1xr5YqfVd7zHmX0HkSUks/lY5J3XoNzBv0X7OLbmXKZVB5e0Rtos+2FYGP/CE06g99a59vo7fk2fe+v/WAH9RwrK7W9Km37W15LgLDx4hNe/pGmCaJbrbkzp5UIg15MPK4yr4iyw81FP2++mNff7hEyux0e+aXEennXA4PeLh223gOsiVk5+k/1kI648b2Lu/hs1nDVSebYolU7QGhkWogv9e+yHTWu21SEmr3W/9GSlA5/lLDeXzAwSoekj9+qElx10gV6PDIT2+MLQI78c8LiNXWTfc2jYOe0qnyN+x8+0g0147/a7JlVbGdKh6LeQ6cXAA/uckHKNGdGKuyzEc9FT9pO89Q0puvL6nKBdOf9/7WouUetvchvdacojkeoce9ty3XExPOGokToo75voW/bsN9mR9VE4CKnIVyyGIZV4EVBsC8vsRWP0pjfIoRoxb1xHNtsu8HNeQjC4r6itx7cKE5ZgTYi32NqA44yKitTOUej7XYxyxZDa/oygcxjn3UBWOsUYtqTq1pzxebGQbOGo8QLl8iLB7VlFOQr7nQHI1mjA6pnWMw0iVDTGTgnO/pLFopsi1ZyDJ95TPplwe/Ns9OHtqRJHviT0md2JIvKih9KaG1BchWOJxlHvqy4tld0g4gpRHOW+i9LKMHSGAKaoOk1zQ7+B0occeLkReCTgQHIrP5f5ddl74pKlYAosPGn6zKxZnpH+nVw6RXP8bw0Iogt0XdZR/Okbm8RbsVnVYZcy7hA2xPEoDpVck/NK/HAzdF63X5Hmu/PdRzFLPcOVCuyi1SmJ1Wfk3nZpN224En/Ao/txA4XkGweiMJq70kisJJQwzwcr9YWcloX1I+lCRq8ESw8GJskBhoqAu7CcVKPwIpfQ2/B4/Fld2kaqRAnuBToE9MqCcpDBhdVfplTkSqAgniMwPr5jhyPUUhXwO4ZUAXJ41bGRPUG9WsKTxhPxB5KqnJDUxLOcMIfVWQP7LEFb/TJ5mryaFXgAYE2nwrQzcExpxSk8EGbmwX6xd2O8bdSE5KRxxgvzjLXi3vXBmY0i+FlB41K2iS+whFvT7IaasN7V+D4etKkLLw9tjfNHVWQLbL1sG65RD8lzLSP61XdgvLRX2qzxdV5Q5JoX9djuF/bzdwn7Po5jrqUPWq2+t98ORax3ZpykEs14sxFYQfHIM/uIAfqokunwPveTq+LgB/psNhYzyNdh5eFx+CDpTkaveEs1apaHH/HmpNDRVxE4qTNjERht4xMMSCbJ6tTpYw5HrGfaWzZ0cPs60jpRwhmRAWVyNGGIQueopSU2uQwjMvLOD1PmJ6NEVn6cQyjhgorxSKeXKBKPJhLFZC9yPjlD5dgNTlNckg0NvSeBOKWLKUx2Lp1B+m4dvtkvaUkG/IwT90mekL1ZSWPC/PYQ7wNuW+9d77kcmeuUQyVVVkjqtLkldIPW6UrpLUvf2s/f9cOQqIJ6icDW9gkRLwM6eGlf99NF7/8niISrnGfh90xg3S9gYoTDT2569//AJV0Wujp1T1EtRReVVzqOu/uqMP0Q9H8HkmAlG+bDFcCicIDzfHcxyaOAwYhdJjjM4EDk6QznmGnoJSgA1HLmSMt5UXwwkHPEA6fW5DuHKIB1ErnI7vWfONA3vlw0cPCui8OsJ8p96O7XfycbP0jeCVFak1UDuqwhsGt40uZf9YR38vyIK4uWiSVXxNMcfm+C/DsFskgYmIW6jP4Js6xjBJUoHo25EzwXkavNte9gR+kFAb6hAr5y97fqRiV45RHJ9uQ0LNdFwKzEUyGaPtyuH9X4N/ItNzNDtyGsjWSl02/X2r9/74ci1htBK9x6cwYXIywaSh7MqXPXTR28/SDre4iMelZaECxJeiae7BN7bnr2/leR6H/ViD7lqpGItJj9SpDE1Tj8W39eFU2w6aOC1QwPlmDgQpFjo1UICBFBDkytF9JcBciC56oy50veQNrTGMZFIodiqdkiOeLcTbgesyw5YNwIIPq3j8At/J5xCX8P+ESHXsJJcNVKxnI8kT5lOARLjn606NlaV9hBDA+068Zx/C7nWMUIr1wPWfmSiVw6ZXOkCe9wyIdcjrPu6chDdEnKdpsiV1tuwr4cj12OEBpRylu/fTx/y9/J5nGDkooRwyg3bioSN6dnBISX59+x8Pfi9Tj2+m+da3IFj3gmb4nDATC1NSWel0EAN67NGzIbrqJOQwBW8C3It61YT9aMdpWfj3MOxUMXqdHfwdTa0rolc9cRcSUlmayqM5S3JM5azBbhRP+61BMQz2p6IMUF2itNwm7r9l42s1+MTPdd/xmAnhK045mGmwjSiPbYSKLXK4kbNTK0C/sdtWK9oD7mf8rkfmeiVQyZXted6hHWV5xpReK5yH65ytjSPwP8nptwoDe+i3CpiiV79+DalyeiayVW03zchFnO9YjjqKja/6d+oyHWomCshOWpQciYLbA47zD2xIjk0kA16sF46Qznq6vtPFG5qCdE8j/1odyOGVoJptYh68xA+iogmgzzqzRwWqfsOS66T6+QaaSz08YT0xFzFDbxHTfAvtsScVplcR0TvsImtiPbsOp7NgW+l4NLYiNEbqxRjrt/HMEfbY2oOltV5TPRMdnLWwH5pESvPpJCAoY/cnM2PyN8LiDfdmp41bRvyuh+56pVDO+aaUsdcSVbGRVp3zHWQHKINfs0q/h1nLhXA/7qvsEsnW0AnuYrZIxcJVfZEr97mGkfgf1CSe28b9l57/HyoelGRq8GyjYKgzBZIFhuoCTyWJ7uelZQt8BCHyS343F64AhFsFx+gxisJlwgukg7JGihWkRdIHLS/kiZDfDu8UFQQqKxAbmIZyfoZKvldBDx+uNf2kG+cobjjUZRCHpZcDfY4KsIpkhtLnT8WOOa107bkvmidR7xhpC4EHH67h3vfNpD9KonUKwHlf4YVaWr0byXi2YVNi+C8m8jK2QLRdrbAsyNVzLXz54XPw/BE3VhIBLH1bQOV76KYoyYdcl9iDzE08KyI1ICQwGTpsB0bzsFD2Z/uP/26H7kadMohkus5j/3H7WyBlJQtUP46qPDqSLZAvJMt4OlmC7yIwdIzmZD+DZKDm/Vj51xA4WkMvm0vXAe7SP8kIP9wUVG7flhyNaySkEYNu0e+blbFkjpta2w/03f1QuuXve7PHR+ablTkyhnGMS3muZ6i2jjFQTqG+YB6Q0vMq7QFEc2181xrDWSSUTimtONEUmjgDPXjxKUhgRHbJrK1ByhnQn3jaWPWtXZ+7R/AH1WR3AxgqpdArNsoEiLXGRYQl/TBLPLHD1ATziSCL0QwqUV4A5Yuo+4A1j/JIPPqBMV/5xBrLGG6Z2lOA8FCduu/0/6HFiHCqfg2Ev+uofRzHZnHEdj2EmpyNRgx7l+V8lx/aqL0msfeo/55n1LWgAD+x3uK1QfdL/F1YAP7rxooPFnDFOUVq9q1dSJ60OfqiUKvHHJYwLUVReK7Ospvasg8jsJhU+NqzLeMsJjnKsm7/3kEdlufwadDjjFvO0/4pwYO/1PETsOHyR6iHpZcCa4spT2kfmx0Nqt4jeU/J6bDVbCq459t/XTPPu9j+wHj9ab0piLXm7rR7/G6clhgkOzmIlniFrAenMH4xO19KhYhksUvGuD/EcTEFSalQXq6i9+Tp2KNTs/BcVpUTZh3Ud7fk0yMXG9wVtNLrpzJjuUnVZRbgvgXyNv0VKwx54K03N30wS/kUWiRP05MqVKSfk+DahhZSRhFzOr4pYrdkl0RghjmOqzth+W1Enswcr1Bch0G8GTZPGqdw+zS4KdiDXPdm25LUphEcrioI/8sg1DSqoh93/T9b/v1yVOxLH4LJswfHjncdt2+7/4zcv1AyPV9A4Hdn5Ebw8D1YoCRKyNXtoRnGGAYuAEMMHK9AaUyD+B6PQCmT6bP24gBRq6MXJnXwjDAMHADGGDkegNKvY2zLOsz8w4ZBq4XA4xcGbkyr4VhgGHgBjDAyPUGlMo8gOv1AJg+mT5vIwYYuTJyZV4LwwDDwA1ggJHrDSj1Ns6yrM/MO2QYuF4MMHJl5Mq8FoYBhoEbwAAj1xtQKvMArtcDYPpk+ryNGGDkegfJVe8DY2TASgUTb+/TuGQ52PnDJ2HyFLCR0e5zoe+yzRi5UuRKHp5yFypu6iVXUhTPUU8j87qJSiuneAr/bQO9aLvfyaDVa5sPUSfiw9RbTRSep7Eeme5bkUSvjB9yO13kymkUKPyQhLqO/nGGWSzlHqDerGJt7nbOrGP+FUSelFC4EFA557H36QbmLeqHTMu2M6UyqLw9wnbRB9vK4KdxcRqFEeVrvc8zZ5iB/28N8BclLLsH205LDvkh3XRhxPclk1b/hu3LsDoZ9vpXbU+eAmYN+bDyuAr+IgvPzGB7XfVe7/t3jFzbnispd+1LCziuVbByC8m1U+blsxDWHzewd38Nm88aqDzbFOt5aQHNIlTBf69dAUGr/XUMeq3rvutnxHaev9RQPj9AQMeT/LXkuHvkOpxO3tUGw/6eW9vGISmX7mHkqqqhNawyb7L9dXiuN9m/3+LaEwcH4H9OwjFqRCcssBzDQU9JarovM7Uy+Nf3oNdb0yIl+nq35bWWHCK5/hhTVBV+X/Jo9e999eWm7jsSJxWPc/BM/Y7IlcRppsQaWgKqDQH5/Qis/hSOewsUkppN1vV2LauHqB7XkIwuK4rwyVVfyzEnyKaJbCjOuIho7Qylns/l7y876+6fXEPL48VGtoGjxgOUy4cIu5VFByVilmpmNU4/Rr2WVBUKHEYOsbbYAL0Q+ToFFAf0z2A0YXRM6xiHkappJVYZ/SWNRTNFrlQ8WUunplwe/Ns9OHvqj4n9M4xhcieGxIsaSm9qSH0RgiUeR7lVQMBG2VKs3dWuPXXeROllGTtCAFNU7Sm52uzB6UIPDlyIvBJwIDgUn2v1tfezhU+a4kO6yYO65YN/s6uqskrwokcOkVz/G8NCKILdF3WUfzpG5vEW7FZ1WGXMu4QNsXZXA6VXJPzSv1ZZb7973+vtX6d217YbwSc8ij83UHieQTCqLHYoEbPQ1ckr9eQ5jD1EPJNw09/KOOhjXyKT3v7J8s8cDzexy7+7TWd1WMASw8GJsvprolBTk+vkOlKNj1BKb8Pv8WNxZRep2hkqyUCnBDMBjpNUfa3uKr0jRwIV4QSR+Svsburtn0iupyjkcwivBODyrGEje4J6s4IlarbkTLZOtddAoqFNrkPIIVXFvVwvIhh19s+X/RM+++wz1fHppw+RWKBIzhlC6q2A/JchrP6ZlFpRk0IvMI2JNPhWBu6J7nU6bTwRZOSqs7F21dlvympyta0g8eYE+cdb8G574czGkHwtoPCoWxqd4ECsNvtDTFkMUSzKV0VoeXgcjC+6utVUQ4vwfsxDi1wNOuWQPNcykn9tV51NS1VnK0/XVVVndztVZ73dqrPPo5jTKI3e0We/iU5n/yTyqiP7NIVg1ouF2AqCT47BXxzAT092M1bMhxZF3fj+dARei1yHsIcUbrrcviKefZvItQb3T9aH4+MG+G82FLqVv7srZxW5zoRrqNdTcFDezHSoinqP5zqzcYx6bR8LVLsxfx7HQgkBqtKpVPW1iY02AMhMaIs2Ua/GVR6iHqXq7Z/kGZ5hb9nc9ZhN60gJZ0gGJjqf0fecjdQ0yZW00SuHXr3o7Z9pzomFBZfGsYBp2js0jMG8s4PU+YnotRSfpxDKOGCi7EN0PzJugtFkwtisBe5HR6h8u4EpalUh60Mq952AnSKMqUoRfI/nKlZ7fRWHnerLWDyF8ts8fLNd0paqzR4h6Jc+I32xkqq3/+0h3H4kNODzfiW99cohkuvbHLzUBstoIo1KSymHuUCKSabgojBuCGyJxBJe78or63HQWW//JHIVEE9ReJ5eQaIlYGdPG8+id6hBriKetxIotQbbQ699h+3fZPEQlfMM/L5pjJslTN6FTB3a3ipydeycol6KKspacx51aW1n/CHq+Qgmx0wwyocthkPhBGGqnLW8pD6M2EVC4wwORI7OUI65hl4Kko7r7V9n2W3vAp4zkHDEA6TX54YmV71y6NaLHLYYon+04fq95kzT8H7ZwMGzIgq/niD/qRemNnmSjZ+lb6QlI99qIPdVBDbKi6evaX9YB/+viIJ4uWhSVaHU8ccm+K9DMJukAUKI2+iPINs6RnCJ0v2oG9FzAbnafBsHdoR+ENAbKqD7MMzrfuSqVw6RXF9uK2Ku3EoMBbLp4u3KYb1fA/9iEzPUhEQmCoORrBS67fT2XW//JPKqIbTSvQdncCHysoHk4awmni8jVzk0MMgeuu0req76+0fSABcf8Z1y4yS0E093Jw69+vuQ22mQ633Uiz3kqpGKtZj8CCRG2XvUhVNsOmgAtEMD5ZgISIn0rhgSEMlVX/865EoR/SBDXOa5dkIcA+TQrReZXAf1T2fMlZZN2tAax0QihWKr2iE5IsOE2wHrsgPWjQCCT+s4/MLfCePQ17B/RMg1rCRXjVQs5yPJU5bjnvKZb9WxsarEgRgaeLEpTtycn3h7xwitDB8SoPspv+5LrjrlkMmV3tzjlgm5HmHd15WD6JaQ6zRFrnIfrnLWq2eJXI8RWu72ZdD9LiVXOTQwwB667SuSq/7+jRNsXpQQTrlhW5EwOT07OJQ1SOYP6XsNch3Ccy3uwDHvhE1xOGCmlohEWGlJXcP6rBGz4boUErjCLE+uNbTnOoi8qOXmZeSqVw7Rc9WhF73kryfmyhkmYE2FsbwleeRytgA36se9loB4RtsjMCbIjm0abpN6wOr1qETP5p8x2AlhK455mOmlM8GBuBQtY8VpxEytAv7HbViviIPeQdSXXHV64DK5WijSlDzXI6yrPNeIwnPt7csw7/Xq+brJVcSzDnvote+w/ROv+02IxVz7xlyPdhQbFJzJApvDDjMV5yNGlJfU2aAH66UzlKOuvv/M4KaWEM3z2I92N0RosA4XcxUQuUZy1SOHGHPVoRe95Kon5ip61Y+a4F9siTmtMrmOiN5hE1sRbe9wPJsD30rBRcVVZV3rjQWKMbnvY5ijSJKbmoNldR4TPZOsvBTdLy1i5ZkUEjBQZCbfW8SMzY/I3wuIN92anjXdlrzuR6565dCOuabUMddDEnNN6465cgPk0Nu/YcmL6OQyz1XUcTtUc5k99Np32P7NNY7A/xDDXB/799r3Nr5Xea4GyzYKgjJbIFlsqPJcpV3xhzhMbsHn9sIViGC7+AA1Xkm4ohHl3fZiFXlBQMSuPdhJ28kQL4Ya6kIRPg2PSnf/dC67x+cWldkCjQOsOD3SZ3YLRinjd0IDl8ihVy96yVUvqEa8YaQuBBx+u4d73zaQ/SqJ1CsB5X+GFelx9PWkgb2rvbHo3URWzhaItrMFnh2pYq6dPy98HoYn6sZCIoitbxuofBfFXO8kKy9FnxWRGhASmCwdihtzYi7kpNqzpuUgr/uRq0GnHCK5nvPYf9zOFkhJ2QLlr4MK74qzLiHeyRbwdLMFXsRg6ZlMSL8GyqGzf3rJi86iELMFztNYamcP2FfnVHgWQzWX2EOvffX2T7bb2H6m76pJbnPbzypy5QzjmBbzXE9RbZziIB3DfEC9oUWC+OO2IKK5GsqNh6jWGsgko3BMacdNpNDAGerHCdgoL6dXgSO2TWRrD1DOhDTjWrr7p5NcyTK+N24sv6/zO6qZdZAcevVy3eRK9DjqDmD9kwwyr05Q/HcOscYSpnuW5rS+LWS3/jvtf2iRiWQqvo3Ev2so/VxH5nEEtr2EmlzFPNdVKQ/ypyZKr3nsPeqf9ymFBgTwP95TrHrofomvAxvYf9VA4ckapi7Bi/w70cM6V08UeuWQwwKurSgS39VRflND5nEUDpsaz2O+ZYTFPFdJ3v3PI7Db+jgMA+TQ2z+95KWV/9uJg38fxSzlLBDdDbKHiGf/YPvq7Z9sL05Mw6tgVcc/6uTf3LazilxvmwCsv+pBLYcFBunGXCRL3ALWgzMYn7i9T8UiMefFLxrg/xHERA95DNIB+16Nn5vUCXkq1uj0HBynRdVEfZP3fR/XZuRKbWi9DwPcxD31kitnsmP5SRXlliD+FdHbJy3rJvr4rtcccy5IfyLY9MEv5FFokT9OTGmmJL3rvdjvr4+ASfiGeNL8L1Xsluww3uHJkJHrHSTXYciALEtHrXOYXRr8VKxhrnvTba1CVRqkF3Xkn2UQSloV8cSbvj+7/tUIlzwVy+K3YMJ8td/fJr0zcv2dk+ttAivr690npLtkY0aujFzZUpphgGHgBjDAyPUGlHqXZl8mC/MWGQauhgFGroxcmdfCMMAwcAMYYOR6A0plM/3VZnqmN6a3u4QBRq6MXJnXwjDAMHADGGDkegNKvUuzL5OFeZMMA1fDACNXRq7Ma2EYYBi4AQwwcr0BpbKZ/mozPdMb09tdwgAjV0auzGthGGAYuAEMMHK9AaXepdmXycK8SYaBq2GAkSsjV+a1MAwwDNwABhi53oBS2Ux/tZme6Y3p7S5h4P8DdP+gtjBcLosAAAAASUVORK5CYII=;" vertex="1" parent="1">
          <mxGeometry x="393" y="395" width="118.08" height="42" as="geometry" />
        </mxCell>
        <mxCell id="HgCGJ1RKAsyM8t96xPIt-10" value="" style="shape=image;verticalLabelPosition=bottom;labelBackgroundColor=default;verticalAlign=top;aspect=fixed;imageAspect=0;image=data:image/png,iVBORw0KGgoAAAANSUhEUgAAAY0AAAB4CAYAAAAOj67PAAAgAElEQVR4Ae19+1dbR5bu/CNHLAELMJfnwiCJK8RDaGEJBBIPSTwWICQkHSEelh2nYzt+xbzsyE7SnriTTscGv0l3z1qZSdLTk44nPbmdieOo/6TvrjrSkUrvEsGBmP3DWUeP0qlde3+1v6pdu1T/8n8aW0AX6UDFgOH/9hAeqE8QBggDBTHwL6qzoDsRB8MAkQbhgHwBYaAYBv6l9aQemopKukgHhAHCAGGAMFASA0QaBJKSIKFBBQ2qCAOEARUDRBpEGkQahAHCAGFAGANEGgQWYbCoIw2606iTMHB8MUCkQaRBpEEYIAwQBoQxQKRBYBEGC40uj+/okmxPtlcxQKRBpEGkQRggDBAGhDFApEFgEQaLOtKgO406CQPHFwNCpCFZxvAyNouzTVpyMK8ByUiaSjS6htDvakOFhmxKDvD4OkCyffm2J9J4DUigXOBLmhqYNqOQN/ugJdKggdAx7APl9hkqnyYXIo1j2GGINNIdgJwB6YIwUB4GckhD0lShy2rH48tBfL8dxOcrFgwNjuLHrPCUpNGiSd+L22e8+GYrjO/Xvdj1mtBdlQ53SFoD7m5F8HyhHRpuRCtpdXhvI4K/ZX0uYrxhrx/xq0MY4J/X68T3MS/Ot3F1a2oxNDqKz64E8b/vRvDj9iL+Y80Ob2umgkTaweSS9IP4r1gA2wMGrJ/x4bvtEJ6/7cGGpQGVnCwabQ0qq/Jd1dBWcPJ1D2N+LwLbqBHWbRmLj1bh+3AWVkdjRsiIhZKq+gYwfDOIhd1V+H8fhOtsHxrr0s9S5BMoJ1lG4duLIvzZmZxL3jsNx0jmM0XsQWUy8UT6IH287hjIIQ1thw1fvLuEv65YIQ90wj/uwL23vHiRRRqapl483l7C12uDiAwY4XXa8Wwjgm+XjGhKOlHm8KblEOLv2DHIOdaK7hH8PbaILWP5ABMljeo+J76LhfB0rgezfXp4Bsx474KMl5dsMHOyiLSDgSBBGkF8ec6FDacRswO9uH5mEfEbM1jj1nq6597GlStXcq7Ll9+EW5d2ypJCGiuYi03DOmeCztkP63YE8uMF9PDkd3IA7ken4d0chmnUBMOcA557Ufiv9aCaa4ckUE6qb0X7SBd0I90Y/CAK+YNR6JX37DMjmrh2vO7Ap/aV3/dIZ6QzhoEc0uib8iK+NQp3ZdrBdXvmEM8ijZ7JecQ3nBnlGgZdeBGbxmp9+rdV/aP4R8yP64bEZ2xkP7KwqBCJnXN6ooAUJY0ezzzimw6McnVUNrVh2nISOm1aPtF2JEgjggcjtakYuFTXiyexCHbsNanPapr10OkMeS4dGqrT9SZIIwrXdF3qt1JDP9x7UYxPputoCAcg77jQzs3gKl3TCO550c05edFyTM8UnqLOL9rfqBxhJRsDOaQxEQgiftGKbs7ZagZys6em5DDi5ywwVFejVr0MNnwVW8RmJ+cckyGqv8y0Ks5R0rRh61oE3+wjNMWEFyWNGjObaQTxmX8AS6f0cOib0MwRoaoI4XYo4akgtru4tml0uLUuY2+iMeX41eeWuidIYxm2fv55BtjvrcLjb0o9r+PCGuTbVtRy9pBMdiW0Ze1L/1a0HJOLSIMcQSl80veEkUIYyCENVyCkkIaJd1J5Um7nlpbwz1vLOVc8FsQNU9qZpUJUl2zo1WiTYZ5FbO8jNMUaIUoazDHaRx3Y+Y0Xz7cSsv607cMnzpaMNQjhdiTXNLaM6bblVWq5axrm4s/TXzoN+VYWaXSx9ZAVDFrSvxUtx2Qm0iCHkBe7xzAphPRQfl/IIY2yZhrn7XAbT2I442qDvibtzJhREiEqLy60aWGZXkD8+jCGuUXhcgw3OO9H/JodVp7U+hz4ITaHN1sy61Wfy4ir5kQT3POz+PHmJMLcIrIy0xBoh7oQXoo0ylvTiMBWgjQKzyCWIDbTyCzHdEKkUX5HUbFEd9LdccdADmmUtaZx1Q4r5/yluiYMm9rQkRUGUrOo/uzS4+LFRGiq4Kaypi6898YMHs7r0cIRg2qoVucU4jcnscQ5/k7XLOI3J+Dl6u0csGLDpUcr9wypcwh/i/lwuSNNLsqahkA7REmjvDWN0qTRIAcg3y+wptGYbodoOaZHliFnXI9C3jJnzLpUHdOdHCNhgDBQCAM5pKHV2fBlLJk9ZemEb9yBnQv+3B3hyeypryKnIFsMmBmy4M6FEF5eGYKNIxJWsRqi+unCHD5naatdhQ1idM8qIa94bBLh2rRTVBsg1ZuwsxnBt+fsWBkwwjfmxOfbEXwd0KOOI4hWuxsvYou4P9WDGZY9ZenBxhtBxDfG4OEWldXsqVLtECUNVc5S98SaRmnSkNos8LDsqQ07upxdMMyOwH0vCt/VblRx7RUtp8rVtCJDfrAAq9sEnZJB1YlGLoFBLUf3wlgl3ZBujiMGckiDjUK7bcN4ktyn8cWaFU577kK4sr/B0IfbZ714vh3G9xs+/HHJCldTfiAlQlQRxK+PFA1NVRpO4U8bMp5HzZmL8Vy8tUGX2B/yfFvGd9fmcX+uC13cLIMZUtLUwz01gX+7GsIPyj6NIP7z3ChOd6YznRLltGgSaMehkYZGi+re5D6NB6vwf8L2aZjz7NMQK6eCXDrRAfM7AfgfnVb2bMhsz0iJUJn6W7rnxzjphfRyHDCQQxrHodHURurchAHCAGFgfxgg0uBmMASi/YGI9EZ6IwwcHwwQaRBppPaEUMc/Ph2fbE223i8GiDSINIg0CAOEAcKAMAaINAgswmDZ78iEfkejWsLA64MBIg0iDSINwgBhgDAgjAEiDQKLMFhotPj6jBbJlmTL/WKASINIg0iDMEAYIAwIY4BIg8AiDJb9jkzodzSqJQy8Phgg0iDSINIgDBAGCAPCGCDSILAIg4VGi6/PaJFsSbbcLwaINIg0iDQIA4QBwoAwBog0CCzCYNnvyIR+R6NawsDrgwEiDSINIg3CAGGAMCCMASINAoswWGi0+PqMFsmWZMv9YoBIg0jjQEmDncdSkXW2yX7BSb8jx0YYOHoYECINyZJ7CBMZ8+gZM9smP8duysl+90YzjsvNfn72e0nTiJ4bq5AfB2A25p66mF2e3h99DJGNyEbZGCDSeI1nGr88aTSga30Zwd0F9HYSaWR3NnpPDvh1wACRBpFG3vDUfmYar0OHoDaQYycMFMdADmmwmHSX1Y7HyTPCP1+xYGhwFD/GZnG2KT16VM4I1yfO6v5mK4zv173Y9ZrQXcWV0RpwdyuC5wvt0Gj4z3V4byOCv2V9LmKsgRkf4uvDmOu14eHlIP53O4D/OD2EqaaqDOcnaarRN2THzoVF/M92GP+4voA92YKR+rQcrD5JU4uh0VF8diWI/1XOEl/Ef6zZ4W3NVJxIuVbnFOIXTsGo0UKqNOKTmxH8z6JOkUtqHcC/v+vCQjLeL2kq0dRpxvtvePHNFjvr3IsHvh6Ya7Lk0w/iv2IBbA8YsH7Gh++2Q3j+tgcblgZU8joVtJtGW4PKqnxXNbQV6bpV0jDYHXB/tILggyXMrI+gvTVTz7qLa8oZ4+HPzqTu8sMJtHOyqXatMvVhcCsA7+4qAvdlTF4eQntb5vPUsnTPxB/pg/RxVDCQQxraDhu+eHcJf12xQh7ohH/cgXtvefEiizQ0Tb14vL2Er9cGERkwwuu049lGBN8uGdGUdBjMMU7LIcTfsWOQcyIV3SP4e2wRW8bygaCQxoYXe6vDWDvVifkRGx5dj+DFmxYYuDqqzU58F1vE7kwvvP16TA/247cXZHx/pg8dfLk+Vi6Ep3M9mO3TwzNgxnsXZLy8ZIO5zHJS9wi+23bCzUij3Ya/rAfw3+f60caeY3bih8vcM5vNeHpjCV+fZvrrxIJzCM/WI/huxYRmrl5JIY0gvjznwobTiNmBXlw/s4j4jRmscSQuarfuubdx5cqVnOvy5Tfh1mWRxk4Qk5tj6BkzwTA3isndKEKxAdRx8lV3GtBu60xdpvMy8pGG1NqHid0o/DEnesZN0LttcN5dQ+hDB5q5gcZR6RgkR/l9k3R2PHSWQxp9U17Et0bh5jJguj1ziGeRRs/kPOIbzoxyDYMuvIhNY5UbzVf1j+IfMT+uGxIOic1QRhYWFSKxc85HFHAKacSmsHwi7eBODLnxMqveiqpaNNdVo7KiEjXV1aitrkb94ARexjwIVad/2+OZR3zTgVFOlsqmNkxbTkKnLa+c1GDGZ7FprNVrUWNz4bulMdzbcmJCo4VufAYvl7tSs4PeSW+O/urz6C9BGhE8GKlNzaSkul48iUWwY69JfSZqt5pmPXQ6Q55LhwZOL8pM45kX3Rwx1S4sQN6bRxdn32y71QcX85JGnc8H+fE0DHVpnWp6RzC/t4KhU9xnr3G4MFtX9P54ONnXzc45pDERCCJ+0YpuzolqBnKzp6bkMOLnLDAkHTJzyrUGG76KLWKTWwSVkiGqv8y0JsI0mjZsXYvgm32Eppjy1fAUTziS0Y5vY35c40bKUlULVkKz+PZGBP+8tZy6ssmvRpmRBPGZfwBLp/Rw6JvQzBGmanCRcpJGh/e2Atg2ahU5/zhhxPrVGZxp0mLMH8SX0y0pJ6/o7zeWjFmPpLPhP7P1l5xpbHelHSur59a6jL2JxtTzRO2mtqfUXSGNnbGM7ClpaALBvQDMnJ6zn1OINFrPLkO+O4xGDldsAKHRsvBUum3Zz6P35FgJA0cLAzmk4QqEFNIw8Z07T8rt3NJSyhFnOuUgbpjSTiAVorpkQy8L2yhOcBHb+whNMfCopDHMy2e0479jfryjT9TL6lRmMze8uO3Qw2E8iWF2uT14mTVjkjQ1sI86sPMbL55vJdr007YPnzhbUrMCVq9IOUlTj7NvRrAzdAKh1RDe662GvCbjA3MtVs4s4WNrOn7P9Bd/sz8j9i91MNLI0l9yTWOrRAqrqN3KXdNo5fVsm0BgL4D+pJ7zdeZCpNF2bkUhjQbuefl+T58dLQdB9iB7ZGMghzRER6zKSPm8HW7VIafubdBnLeYmQlReXGjTwjK9gPj1YQzvc3SpkkbuTMOHq8kRsKRpxfrVCP5fSI8KzklVWMZzSINXCCObmhNNcM/P4sebkwjzoRQubFKsnDsUwpczvdi4NoszjVoMzvvxb24Ttt5ZwKX2NJkWm2ls8DM1QdIQtVtZaxpZ+zSkn0EaiZmGPWOmweueXpNzIgz8OjCQQxqisXFlTeOqHVbO+Ut1TRg2taEjK7yjhqj+7NLj4sVEaIp35hlgaerCe2/M4OG8Hi2cw1fL5F3TGHRlrGlImiZcejuC75eMqdkCc/TW2YWctZnOASs2XPrMMEznEP4W8+FyR9rJi5bTT8zixaoLu1sOjGu0qLe78UNkHDs3J7DAr5HkWRM6YWNrQlNY4dZrEjOzAErNNETtVtaaxgGSRp2frWnM0JoGN/hQMU33X4ezJDsl7JRDGlqdDV/GktlTlk74xh3YueDPHaEns6e+ipyCbDFgZsiCOxdCeHllCDaOSJiimcNmWVQ/XZjD5yx9tKswSIzuWSXsFY9NIlybdtqqwRIzDS/21rKzp/pT2VOsvlMzXvz0rh+fTvZg1mLE6qwHTy/mZoG12t14EVvE/akezLDsKUsPNt4IIr4xBg+X1SNarsLsxIvNIL47Z1aISOq04/lGEH9PhufUdmia+vBUyT6zIcyypxxDeLIewd8jXansM0V3gjMNYbsJOi015fagwlMse8qVyp7qSmdP3XWihVuAT+lHUE4qX7gvkW5IN68CAzmkwfZpdNuG8SS5T+OLNSuc9tyFcGWfhqEPt8968Xw7jO83fPjjkhWupvyGSoSoIohfHykamqo0nMKfNmQ8j5ozF+OTTkQhjXfsmDMP4vGVIH4otE+jsgn+hUl8uS7jxZYff470w2Z15tlvUg/31AT+7WoIPyj7NIL4z3OjON2ZzkxiimfrFULlWgbweYzbn1Hbg0exCH6MdKGKmzkx/TWzfRqK/krv0yg10xC1myiI9ksaDXIA8u5EIs04y/FXdZsxpOzTWENgR8bUVTva2/LjRVROKkf6Iwz8shjIIY2jbgCFNK7bwa9pHHWZj4t8bANk57VVyLetqOUI8ri0n9r5yzov0vfh6PvXSRrrw+Czpwg8hwMepvcqvS6xsW+4Gz1RL3x7Kxhz1adSgck2h2cb0j3p/lVggEgjK4TyKpT8Oj+zNbqk/H2I/HgF3juzsHlaU8kHr3O7qW3kkI8rBn51pHFcDUXtJidFGCAMHAUMEGnQTINCSYQBwgBhQBgDRBoEFmGwHIVRDslAo23CwOFigEiDSINIgzBAGCAMCGOASIPAIgwWGuEd7giP9E/6PwoYINIg0iDSIAwQBggDwhgg0iCwCIPlKIxySAYabRMGDhcDRBpEGkQahAHCAGFAGANEGgQWYbDQCO9wR3ikf9L/UcAAkQaRBpEGYYAwQBgQxgCRBoFFGCxHYZRDMtBomzBwuBgg0iDSECaNCocbgb0wrD2555zwHVm0HP8ben24juDXoH/C1dHAiBBpSHnOCP81gKyUjOZpb8Y55/FtJ1w/8y+9851DUUgOdlhUo2sI/a62jGNps8uLlsv+3UG+Z2ekd76zBvlf7agvoqN85RojQeVPDcOfnUn8ueHDiYyz0Q9Szv08qxz5yrHvfmQp9puDxIH6R5OqTdS7/LEj4xAw0XJMtuq+AQzfDGJhdxX+3wfhesOMRu4USr5t7DyZ+qAfoaeL6Cty5rz6m3y4Ur/LvksjboT2fOhtSw9uDtNu2fId9Pt87T3oOvjnHWvSqGs5CVevXrmWQj788qRRA9NmFPJmH7QlHLFIOd6wB/1aajTD/TSKSV9j0ZlJvnLajo7E36fbOmE6L0M+YqRRjnyH6XyY4zwoHKT+0t7WmbCNZxQzT6LwXTGhmsOiaDmN3oqpJ6exsDUC05gJhnknPDtRLG6a856tIjX0YPxBFL7zxqLYV3GcD1fqd9n3fE70MO2WLd9Bv8/X3oOug3/esSYNXhEm9xyRRpFQXZ1vAfLTeZia0qM3Xn/q61Ll6oOLR440VNnZvZR8h+l8DpI0+DZLdTpY76xh8aYNjUWO3i1WruV0GPLvR9HKHZFc6XDDvxeAWZeJGXbKZOvZMOQnC+jhZgO8TNmvS+GKL5/PiSp2+9SJFo4Q+d/8ml/na++rbE8OaTCDdlnteJw87vXzFQuGBkfzHJOqRZO+F7fPePHNVhjfr3ux6zWhmwONpDXg7lYEzxfaoeGMJWl1eG8jgr9lfS7S0GGvH/GrQxjgn9frxPcxL85zAJSSZ2tvDxiwfsaH77ZDeP62BxuWhrznPZQkDW0NKqvyXdXQcmeiq07FYHfA/dEKgg+WMLM+gvbWqtQIXbKMwrcXzQjZpMIDe6fhGEl0MtFyTG9qvXqbHa67ywg+jGB204GOtnS9vH6r7GOYe7AG/wd2tFRmdmq+HHstaZrRfyeK4PXevLpTy4uUK+WUWZijKjvMcbYPjXW5MlaZ+jCoHB+7isB9GZOXh9Ce1V5JU40GtxPjv12C/9EaAp+G4LlgRWsB8isln6rnYvZN6EysHZKmDi3zLng+WkbwaRQhxW5OGHTp+HU5OFBtIWpfqaoVfTdXELzjQEseHavPK1aO+QzjehTytZ7Mft40AM/eGoaHMm0ndVgx9TQK71ldRnm1rux7MVyxuk+MO+G+u4zAw2VMX7OhxeVCMF946g9O6Gx2TNxl/ZL1j8x+mV1vsfdKvaNOuO5GEHi0jLmtYbRPJ8NiLen2iuJZvJxYe4vJ/nO/yyENbYcNX7y7hL+uWCEPdMI/7sC9t7x4EZvFWb6jNfXi8fYSvl4bRGTACK/TjmcbEXy7ZEzFRJkipuUQ4u/YMcg5+YruEfw9togtY7pjiDakPNII4stzLmw4jZgd6MX1M4uI35jBGt+O5Oi6FGl0z72NK1eu5FyXL78JNzeSUpzKThCTm2PoYdP0uVFM7kYRig2gLqkDqb4V7SNd0I10Y/CDKOQPRqFX3rPPjGhKyidajulOqfd+EJ71UaVe/cwwXJ9GEbxlTdXL67jGM4PgXhTyfTc6atIg58uor6WeEczvrcLhqE4Rn/odfxcpV8opSycH4H50Gt7NYZhGmf4c8NyLwn+tJyNsIrX2YWI3Cn/MiZ5xE/RuG5x31xD60IFmbuBSYZ+Af28JEyv90A8boXOdwshvVxHYtuQNm5SST8S+TCei7agYYvKtwLNqhm6oE+2jA7D/dhWhu8NoLBMvvC1E7duyGoa8t4rJcwPQddYVtG+xcqkZ0NVu5fcS61MaLaT6fri5QZCiF00tDFdXID+ag6m5OO7U9hTFVZcds8/WMP/OELqcJhh8Exh/P5ifND4NwrOR2T9CsVN5+4dad8F75xBmnjGc2tP1fhhOrKXwpCGKZ8FyGsH2FpS7SDRB9Dc5pNE35UV8axRubvTZ7ZlDPIs0eibnEd9wZpRrGHThRWwaq/VpMFT1j+IfMT+uGxKfsQWwkYVFhUj2c853eaQRwYOR2lRHkOp68SQWwY69JvWZqqhSpFHTrIdOZ8hz6dDATekVp/LMi26OmGoXFiDvzaOL0wurN9XZDmBNI1HvPEyNad1XumcQ2suURW0vGylVtjSguqY4cTPibz27BHlnAm0cJtTnqHfRcqWcckM4AHnHhXbO8Ve6phHMakedzwf58TQM/Oi4l5HbCoZOpXWgqa5FdX0NKioqUVFTA21NDarcUwg9m4WxliuX7Eyl5BO1r2g76uUA5N0JtPGDqrZ26EY6UJelb1G8JLAlZt+mOTecV2fg+d0q5CdLcIzmP6q3WLmUXFe7wdYqxh6chu98FyrykUanHbN7UQR/54P7d8vw3w9j6p0RGHT5Z8SlcNUYDkLedWfgpT60CDnfTOOZeP9QcV3ortTxYBI6ru8r2GH1cqQhigPRcqLtLST3QXyeQxoTgSDiF63o5kCsGRjDyyzSmJLDiJ+zwFBdjVr1MtjwVWwRm53pzqiGqP4y05oYhWjasHUtgm/2EZpiDS6PNILY7uJk0ehwa13G3kTuYm4p0hBVdmIkOoZWTn/S0ASCeWO7YgubqU5ZhFyUeu+NZsRspX4nfHthnDKldSDaDrWcVNmJkd0ovKc7ioYSRMuVcsodF9Yg37ZmzAIkkx3zexFY+9LtaD27DJkbjTN52YBEo2XOJ11OqmmF6bwPvseZ4cBsp6K2t5R8ovYVbUdiJrQCzxs2mMaMaO1pRjVHmKpcifaJ4YX/jehrSVuPrusrkLMwlP37fOVS+GSkoalCdUcL6k5U5cw0GAG0v7UMmc2s1vpwsuckWoYsGPpgFfK9Segb0nZT6y2Fq/Y3V3Iy+iSHp2D2FL+mkegfMgb20T/a3kjgr4Hv52q9HGmI4kC0nGh7Vf29insOabgCIYU0TLwy8qTczi0tZaSr/vPWsvI+HgviBmcEBhQlRHXJhl42ZVXWGhaxvY/QFFNAeaQRwJYxF4j5FFmSNMpc08ggDdsEAnsB9GelFqY6WxEyYLKKlFNJI6Nec5I0usV0kE8v2rFJBPdCsHADgZ9TrpRT1l86DflWFml0DSsziEFLuh1t51YU0uA7bbZczIG1nlmC/DgA+2wnWs0diSswm+NU1N+Wki+vnvPYV7QdkqYWLfPjGL/NUlVPJ1KSH8kYnWvNIWkRHKjt2M+9wjmJ0N4Cejinl+852eVSciXDU+pvssNTkuYkrJ8k1saqeP/SMgDPsyg83txZTin8tf+GkcZQRhp4voXhvHb7Gf0jH/5S9XL6E8WBaDnR9qo2eBX3HNIoa6Zx3g638SSGM6426LNi5IkQlRcX2rSwTC8gfn0Yw9xosJyGDc77Eb9mh5UHXZ8DP8Tm8CZnLHUh/KBIo6w1jXujmTONPE6FtTnV2Q6QNA5qJJWQrxamzdOQ3x8sGvdljk+kHHtmKadceMS1lGemYU/F/fNhSHFSH0exeN6Y6YDVESGXOKH+vpR8eZ1PHvuKtkOtl93ZAKuisRnta36EnsztO5zJPzPfa7b43jTWD2N/ppNOzIgX0deeIGfxcsUWwk9jxK4+Twf7bhSzkUTUQZVN0nRg8NMo5ldPZoSNRXAlOvJW7ZbbP/Y3E29aDkG+P5Yxs6+anU+ExTg/JIoD0XKi7VV1+yruOaRR1prGVTusnPOX6powbGpDR3YsNplF9WeXHhcvJkJTFZzTz2hYUxfee2MGD+f1GQZRy7Q6pxC/OYklLpbd6ZpF/OYEvFy95ZKGYWIW8Rtj8BSQq6w1DWHSSHa2LXOJrKTS5ZROkROznS6+ptFcfE1DUkaAp+Gey3Quqi3Uu2g5Vr7Oz9Yi3AU39zWwGP/9Amsa3HpN4jkzRdc0WNaN5cMoApdMKdJgs4/m1VBOzFttSyn5VOeTMaPLQxrC7XAMwbrYiRoOd1KvAwt7Mga40CqTj8muZCmVwItatrKAfdlgpWsrCjk2kKpX2WzH1gKeTEKf7Eei5Vh9hVNug+hPzlIlzQn03DyN0I10vYredTZMP1vD+FTmQrwIrkRj/OX2D0WuIovGibDiKtzhTpxoqkNtTx/sH6zkLISL4kC0nGh7S8n/c77PIQ2tzoYvY8nsKUsnfOMO7Fzw56xpaJLZU19FTkG2GDAzZMGdCyG8vDIEG0ckTDg1RPXThTl8Hgtgu6vw4qvRPZsMc00inGehUqo3YWczgm/P2bEyYIRvzInPtyP4OqDPGA2XSxoVXXb8dyyI3ckuuJMb/lydDRkZOyKKFnUq6rOU8g8WYHWboFMyqDrRmLVgzsqWKpeoNwjPZjI7ZLp49lS1ZxoBlj2140Z71sxQle1EwA/5yQyMeeRRy7C7aDnlNxYWMlvGRLg7teGvva8xtSNearPAw7KnNlhWShcMsyNw34vCd7UbGSGN1j64UtlTXensqbtOtCQXJxnumpaDkJ+GMRY2Q+/oRvfqLDx3crNrUu0pIZ+offoe4fIAABJiSURBVEXbUT05g+CzJYwvJbOnHGZY311J2IVbZFXlK4UDtVwp+1Y7PPDvrWL6vBWdDhOMQQ9mH0Ux/4YhY7OdaDl1c5+Xbe5jWW/JzX2Bm+msQSZbpXUM88/WMHfFDpPTBP3sMMY/Po3Q75xozcKhEK5Mw5hTs6ccyeypO8ksJm4mqehtV8aUYP9Q9VjoLmnqoTvrx2IydT60uwDz8lQOaYjiQLScRrC9heQ+iM9zSIONZrptw3iS3KfxxZoVTnvuQjgbmTQZ+nD7rBfPt8P4fsOHPy5Z4WrKTwiJEFUE8esjRUNTlYZT+NOGjOdRc+ZiPMf6DbrE/pDn2zK+uzaP+3Nd6OJmGUwx5ZIGG1XZXRP4/LqMl7FIgrjeGoCeGwGKKFzUqajPkk50wPxOAP5HyXj2XgQ2czp2L1pOqfcTJ/T2ESUrJfhwueQ+jfmHa/DfGUZrlu4U/WlaMXA3isCV7gwnosqj3iXBcunytWgJTGL601WEkh1Oft+WInyGq+re5N9RPFiF/5MgXGfN+fdpdJsxpOzTWENgR8bUVTva2zLxJ1U3w3BmHnP3VhHcXcLU5VNoHp8ouKahrDEUkU/UvqLtkCoa0B6exPTHK8l9GsuYj7nQ05fO+lN1x+6ieGH7NIrbtwYNLifG74Thf7QK38d+jEa6UJe1CM/6hVi5SlSbBzDC/kbkwRqC90PwvDWA5qwBByPyWpsNjpisYD54X4bngg1tWX5DFFfMX9W7RhXMBx6tYHbTjrbJwn8jYhhJ7p/K0z/Ys9QMO5Zll3NVZmErGU5sNLWgpkYLyTmZE54SxoEg7kXby2PmoF/nkMZBV0DPywTaq9KH4swOcsdrnxMLe8uwD+ZPhUy1Q7QcR/qp39JnGTF80gvXVw4BV1JNH8YLbLplm29DF7uK2qt6bh7ysxkY8swQXyfbEmm8Jo4r3wh4v0Blo5n23yxD/sMoWrW5sx71uaLl1PJ055zia4K7V2HTw8KVVFGHBjXDLs+9pSNz9lfRejIVYu1w2zHxhygCW+bUOtGr0M1ReCaRxgF23qXIGRzWFY5FIT+MIrwUPTQZDqvtVO/h4e446z68kdj7I7O1wUdRyB9GET59+P3vVRMLkcYBksarNhY9n0bqhAHCwGFjgEiDSKNonPawAUr1k5MkDBwtDBBpEGkQaRAGCAOEAWEMEGkQWITBQiO+ozXiI3uQPQ4DA0QaRBpEGoQBwgBhQBgDRBoEFmGwHMaohuqk0TRh4GhhgEiDSINIgzBAGCAMCGOASIPAIgwWGvEdrREf2YPscRgYINIg0iDSIAwQBggDwhgg0iCwCIPlMEY1VCeNpgkDRwsDRBpEGkQahAHCAGFAGANEGgQWYbDQiO9ojfjIHmSPw8AAkQZHGuzfNauK/KvrYRiI6nw9HAPDVkWec0uOs31JJ79ObAuRhmTJPYTpKIH9IOSTNA1YOysjfmMe55NnJB+lNpIsr66DNUaCYOclqJf8cKLgcbT7sYOkaUTPjVXIjwMwGwv/1bz6bGmk8CFC/DGzavlXeWd/uZ/Sy9M1+D5agCNgQM3PHFyVq5NX2UZ6dnl9i0gjOdNgxzeGVwN4sTmDs0Qaxypkpe3oSJ2LYDov4+BJowFd68sI7i6gN3ledjFHddRIQ96dRq+tE+32bpiWpzH/+DTmorrUEb3F2lLoOzZIK0cnhZ5Dn5fn8A9CX0QaXHjqIBRKz/jlQXyQOq8PLh44aZQrX0HSOMiTGQVxn324FzuutXEpAPnJNPRZZ3qX204q/+vsKzmkweKMXVY7HifPCP98xYKhwVH8GJvF2ab01Fo5I1yfOKv7m60wvl/3YtdrQjd3xrCkNeDuVgTPF9qh4c7alrQ6vLcRwd+yPhcBkbB8+kH8VyyA7QED1s/48N12CM/f9mDD0oBKXhYl9JY4E/yft5YR3xiBg/ueyVROO0T0ojxTUD6NtgaVVfmuamgr0vZgz6wy9WFQOTN7FYH7MiYvD6G9LfO4Vtbpq/qSZ3DvrsL/e3YGd1/GGdyJYy/DsMujmNldxfxVM5qsI5jeWYXvlhPtDZn1lrKb6POkKgOG70fhe9OQiZfKTgzvRjG/2g6mX0V/mjq0zLvg+Wg5ebZ2BLObThh0mR2R4UU5Q/ruMgIPlzFz3YYWd274R23DQZGG7uJaKqyTCu/kCXsx+U6MO+FOyjd9zYYWlwvBPR9629J6Vpz3H5zQ2eyYuLuC4APW3hG0t2baVxQHantL3bNJg5WXbOMI7AXRb0jLJ3UPY56dbz9qhHVbxiI7d/zDWVgdjRkzkgQhJg4vYnqR748hO+QmVRrh2I1i4YwuZW+lXq0B9vtRLEQ7Up8rZ3D39MN+I4iF3TUE7gUxHu1FfdaRq6LyldIHfV+JHNLQdtjwxbtL+OuKFfJAJ/zjDtx7y4sXWaShaerF4+0lfL02iMiAEV6nHc82Ivh2yYimVMeuxLQcQvwdOwY5R1zRPYK/xxaxZczs4CIGEZVPUpxyEF+ec2HDacTsQC+un1lE/MYM1njyO9GM8V49XL16rIT9+UlDU0Y7BPSidABB+brn3saVK1dyrsuX34Rbx3Xa1j5M7EbhjznRM26C3m2D8+4aQh860MwT+ckBuB+dhndzGKZREwxzDnjuReG/1oNq1W7KWcmrmLtkg8EzjplnK5i/NgzDxDA8u1HMhFvKCl8lSKP08xihtUSXIO+60cHJrLFPYHEvBAu3HlAxNAH/3go8q2bohjrRPjoA+29XEbo7jEYOaxrTMOaerWH+6iCMThMMvgmMvh9EKMspq9g7KNKo7jSkQl7ttk4UDHt12THL5HtnCF1J+cbfD+YnjU+D8GyMomfMBP3MMFyfRhGKnUId115JEAdqe0vd85KGZRS+PRkDXRz+FNJYwVxsGtY5E3TOfli3I5AfL6CHIz+psRUnWajL1onut8P5SUNTBd3FVcifONHCD4xOjcG/twSbOe03pLZ+uB8yPI8oeNbPOeHZicJ3yZTCs9LfBOUrpQ/6Pg9p9E15Ed8ahZvL9Oj2zCGeRRo9k/OIbzgzyjUMuvAiNo3V+jSYqvpH8Y+YH9eToxI2MhhZWFSIxM6BXdQYovIlSCOCByPpc32lul48iUWwY6/J6/TM0968pMFkE22HqF5E5atp1kOnM+S5dGjgRlN1Ph/kx9Mw1KV1r+kdwfzeCoZOpT9rCAcg77jQzjnlStc0gntedCfJNOHk1+BwVELSNKP/ThSu2TpImmp0bUYRvGDMq79CNizneVKnHXN7q3COJWzERuK6iyuQ7wziBIeXejkAeXcCbdxnFW3t0I10oI7DbmM4qJRr5z6rDy1CfsWkka2LQmSUkM+dYY988inO+9k8TI1pW1a6ZxDi7MbqFMVBtnyF3pdHGlG4putS2JAa+uHei2J8Mt0H+XpYAkK+mQYrUzHiRmAvDGtPor3Mb7SeWYL8h0wiaWA4uO9CO9cXqhien6XxzJ6XmGmUJx8vK71OE3XOTGMiEET8ohXdXGfUDORmT03JYcTPWWCorkatehls+Cq2iE1usU8N7fxlplUBk6Rpw9a1CL7ZR2iKGU5UPnWmsc2PhjQ63FqXsTfRmAI2D4ZipCHaDmG9JGca5cjHy5r9uvXsMuSsUbYSytGy8EXa0XRcWIN824pazr6Sya6EFqx9yQ6qzDTWMGzXgi1Y9r0fxfhULZgDN65HEbrYlVd/2TKp71XSEHkey6ph9YXW+1Cl0UKqMsL5IIpJX6bNKuzJmcYbNpjGjGjtaUY1R4Rq3e1vrkD+1yHU8+11eF75TEOtX70XIo2EfPaS8qnOu4VvR78zMeI3pe0rigNVrlJ3tV4+hCQVnGksw9aflkXSGGC/twqPvykvXoqRhhqiml8+mfQb7bB9khuyUvB8y4a6mhpo1auHDTwiUPHM2pggjfLkK6Wb4/p9Dmm4AiGFNEw8OPOk3M4tLYGtAWRf8VgQNzgQs5CDEqK6ZEMvcwKKs1zE9j5CU8xIovIl6glgiwtplDJyUdIQbIewXhQ9CMgnuKbRdm5FIY0Gzm752qu/dBryrSzS6GLx6BUMWg6fNJjMNbPzCD1NjKorHB4E2KixOe2MWBlJU4uW+XGM32ax7NPK+oH8SMboXGvGekj7b/KQRp6UVlVXhZy7+v1+74WeKypfXudtZqQRxqnutG5EcSDajrz1FiSNCGzmtCyl6ihKGmqI6u4wGKalHjZrjsDWnx7xsuczPKtrRvxd5vDMyqXWNMqQr5T8x/X7HNIQHckrI+rzdriNJzGccbXlZFUkQjteXGjTwjK9gPj1YQxzo99ylC8q30GTBpNRpB2iehGVT3RNIzHCtGfG8/NkyBSeaSylRmblzAxEbFfu86QTPRh/HIXH2wzDlVUEt8wZ8ensOtnApKKxGe1rfoSezKGLC4++/jONME5xgzRRHGTrsND7vKRhmyi8EF6GUy5GGkyeRIgqiH69Fo3LIcifjqI1y28oeP7AiXZzB1ozrpOo40K1RBqZZFvI3iKf55CG6JqBEru/aoeVM6JU14RhUxs6uPgxE0IN7fzZpcfFi4nQVEWhEXFTF957YwYP5/Xgp+JqY0TlE3XK6nPZvdhMQ7QdonoRlU94TcPP1jRmSq9pqDFgLpSTWtNIxsvLdfKKbtp6YL/pg2vNmOPgy32eso7x9grk2/NwP1rDmCs3Jl7nGIJ1sRM1HI6kXgcWshZoy13TqFP06C65uU8q0l4eU+rrQjONn7emMZ27piGIA1WuUu3IJg1G0A2R3JTb/TjlUqShhqimAp3KuhrLpuKzMFkblDWNj51o5v1QfTNaLCdRy61z7Ec+VUd0zyScHNLQ6mz4MpbMnrJ0wjfuwM4FP15mLYSr2VNfRU5BthgwM2TBnQshvLwyBBtnQKZwNUT104U5fM7SYLsyheCNYnTPKiGveGwS4drcqa6ofKJOubldp2ROpbKnttw4l8ymcnU1ZSy+CrUjmT1VSi+i8vG6KfaaZc24UtlTXensqbtOtPCdp80CD8ue2rCjy9kFw+wI3Pei8F3tVtYQFHvtY03jRMCfCBHtzaPrRKbdyiUNJkPFqTH49qKQH07mzFzZ99WTMwg+W8L4UjJ7ymGG9d0VyDvujEXRjOwpRyJ7Kl92Ukq3FhbyWcZEuDud/dSXmTbKyhZrb+pZ3EyvEGmk5GPZU6p8d8I5ay6K896VMbWZzJ6aTmRPBW9Zc7KnRHCgyliqHYl6S2/uE3XKfFaZkj21O4O+ZDZVu6U5Mx1eDVHdWcR0ntAUa0Mie2oNc1eZ/ozQua0YYVl0HznQzO1aF5VP1QvdC/voHNJgo7xu2zCeJPdpfLFmhdOeuxDOFlmbDH24fdaL59thfL/hwx+XrHA15a8sEdqJIH59pGhoqtJwCn/akPE8as5cjE92QGH5BNcMpuX8azPKno2rQxjgRrIMSKXaIaqXgyYNRbZuM4aUfRprCOzImLpqR3tbpj2YfNW9yX0aD1bh/4Tt0zDn2adR5kJ47yCm7q/Ctz2A+uxBwz5ISKroxPCDKPwsUyvLBqytUkUD2sOTmP54JblPYxnzMRd6+jJnJQwv9a4xeH63jMCjFcyuD6HVnbsPQnUSylpJYBLTn64itJfYTyC/b8twzErZIu1Vn8XflRFxVrYX+z4h3yjcqnybdrRN5u4jUUf8hhEH3B+tIPhwGbObDnRk7cNhz6wSwEFKthLtYPWqawXy0zX4P/bBEerM+RsRUaecb/9K6vkfO1Lp+qp8iRBVFPKnY5nptyl/oEV1jyWxT+NBAveTl/LsT1L3kZQRPlNloHumD8khDVJQpoJIH4ekj14HvHvLGLLmbl77uTbJt+P65z6z2O8ZEXVeW83JWiv2G/rukHDHzQ7JBvltQKRBIMmbDnmYHYaNvtvORXJy8g9Kpl+CNKr0ukR4a7gbPVEvfHsrGHPVHzldH5RO6Tn5HezrqBciDSKNI+fIpKpO5W8k5lcTOfoH3fF+CdJojS4l1nger8B7ZxY2T2tGvP6g20TPOz5O+7BtTaRBpHHkSOOwOwXVTw6YMFAYA0QaRBpEGoQBwgBhQBgDRBoEFmGw0Oir8OiLdEO6OS4YINIg0iDSIAwQBggDwhgg0iCwCIPluIykqJ00ayAMFMYAkQaRBpEGYYAwQBgQxgCRBoFFGCw0+io8+iLdkG6OCwaINIg0iDQIA4QBwoAwBog0CCzCYDkuIylqJ80aCAOFMUCkQaRBpEEYIAwQBoQxQKRBYBEGC42+Co++SDekm+OCASINIg0iDcIAYYAwIIyB/w+T2oyk6mNQhAAAAABJRU5ErkJggg==;" vertex="1" parent="1">
          <mxGeometry x="391" y="445.32" width="117" height="35.36" as="geometry" />
        </mxCell>
        <mxCell id="HgCGJ1RKAsyM8t96xPIt-12" value="" style="rounded=0;whiteSpace=wrap;html=1;strokeColor=#FF3333;fillColor=none;" vertex="1" parent="1">
          <mxGeometry x="249" y="456" width="61" height="14" as="geometry" />
        </mxCell>
        <mxCell id="HgCGJ1RKAsyM8t96xPIt-13" value="" style="rounded=0;whiteSpace=wrap;html=1;strokeColor=#FF3333;fillColor=none;" vertex="1" parent="1">
          <mxGeometry x="258" y="409" width="61" height="14" as="geometry" />
        </mxCell>
        <mxCell id="HgCGJ1RKAsyM8t96xPIt-15" value="" style="shape=singleArrow;direction=north;whiteSpace=wrap;html=1;rotation=90;arrowWidth=0.4040014648437477;arrowSize=0.41490215226715643;fillColor=none;strokeWidth=2;strokeColor=#FF3333;" vertex="1" parent="1">
          <mxGeometry x="350" y="437.5" width="20" height="51" as="geometry" />
        </mxCell>
        <mxCell id="HgCGJ1RKAsyM8t96xPIt-16" value="" style="shape=singleArrow;direction=north;whiteSpace=wrap;html=1;rotation=90;arrowWidth=0.4040014648437477;arrowSize=0.41490215226715643;fillColor=none;strokeWidth=2;strokeColor=#FF3333;" vertex="1" parent="1">
          <mxGeometry x="350" y="390.5" width="20" height="51" as="geometry" />
        </mxCell>
        <mxCell id="HgCGJ1RKAsyM8t96xPIt-17" value="" style="endArrow=classic;html=1;rounded=0;strokeColor=#FF3333;" edge="1" parent="1">
          <mxGeometry width="50" height="50" relative="1" as="geometry">
            <mxPoint x="279" y="500" as="sourcePoint" />
            <mxPoint x="279.3" y="473" as="targetPoint" />
          </mxGeometry>
        </mxCell>
        <mxCell id="HgCGJ1RKAsyM8t96xPIt-18" value="&lt;font color=&quot;#ff3333&quot; style=&quot;font-size: 10px;&quot;&gt;&lt;b&gt;处理后的资源文件&lt;/b&gt;&lt;/font&gt;" style="text;html=1;strokeColor=none;fillColor=none;align=center;verticalAlign=middle;whiteSpace=wrap;rounded=0;" vertex="1" parent="1">
          <mxGeometry x="229.5" y="499" width="100" height="30" as="geometry" />
        </mxCell>
        <mxCell id="HgCGJ1RKAsyM8t96xPIt-19" value="" style="endArrow=classic;html=1;rounded=0;strokeWidth=1;strokeColor=#FF3333;" edge="1" parent="1">
          <mxGeometry width="50" height="50" relative="1" as="geometry">
            <mxPoint x="187" y="415" as="sourcePoint" />
            <mxPoint x="254" y="414" as="targetPoint" />
          </mxGeometry>
        </mxCell>
        <mxCell id="HgCGJ1RKAsyM8t96xPIt-20" value="&lt;font color=&quot;#ff3333&quot; style=&quot;font-size: 10px;&quot;&gt;&lt;b&gt;处理前的资源文件&lt;/b&gt;&lt;/font&gt;" style="text;html=1;strokeColor=none;fillColor=none;align=center;verticalAlign=middle;whiteSpace=wrap;rounded=0;" vertex="1" parent="1">
          <mxGeometry x="92" y="399" width="100" height="30" as="geometry" />
        </mxCell>
      </root>
    </mxGraphModel>
  </diagram>
  <diagram id="zqM2hrYUbrt48Mg4kVhN" name="maven nexus">
    <mxGraphModel dx="875" dy="445" grid="0" gridSize="10" guides="1" tooltips="1" connect="1" arrows="1" fold="1" page="1" pageScale="1" pageWidth="827" pageHeight="1169" math="0" shadow="0">
      <root>
        <mxCell id="0" />
        <mxCell id="1" parent="0" />
        <mxCell id="HDor6ssJVbNIzG7uHwvL-1" value="" style="childLayout=tableLayout;recursiveResize=0;shadow=0;fillColor=none;" vertex="1" parent="1">
          <mxGeometry x="142" y="186" width="493" height="175" as="geometry" />
        </mxCell>
        <mxCell id="HDor6ssJVbNIzG7uHwvL-2" value="" style="shape=tableRow;horizontal=0;startSize=0;swimlaneHead=0;swimlaneBody=0;top=0;left=0;bottom=0;right=0;dropTarget=0;collapsible=0;recursiveResize=0;expand=0;fontStyle=0;fillColor=none;strokeColor=inherit;" vertex="1" parent="HDor6ssJVbNIzG7uHwvL-1">
          <mxGeometry width="493" height="35" as="geometry" />
        </mxCell>
        <mxCell id="HDor6ssJVbNIzG7uHwvL-3" value="仓库类型" style="connectable=0;recursiveResize=0;strokeColor=inherit;fillColor=#99FFFF;align=center;whiteSpace=wrap;html=1;fontStyle=1" vertex="1" parent="HDor6ssJVbNIzG7uHwvL-2">
          <mxGeometry width="191" height="35" as="geometry">
            <mxRectangle width="191" height="35" as="alternateBounds" />
          </mxGeometry>
        </mxCell>
        <mxCell id="HDor6ssJVbNIzG7uHwvL-4" value="说明" style="connectable=0;recursiveResize=0;strokeColor=inherit;fillColor=#99FFFF;align=center;whiteSpace=wrap;html=1;fontStyle=1" vertex="1" parent="HDor6ssJVbNIzG7uHwvL-2">
          <mxGeometry x="191" width="302" height="35" as="geometry">
            <mxRectangle width="302" height="35" as="alternateBounds" />
          </mxGeometry>
        </mxCell>
        <mxCell id="HDor6ssJVbNIzG7uHwvL-6" style="shape=tableRow;horizontal=0;startSize=0;swimlaneHead=0;swimlaneBody=0;top=0;left=0;bottom=0;right=0;dropTarget=0;collapsible=0;recursiveResize=0;expand=0;fontStyle=0;fillColor=none;strokeColor=inherit;" vertex="1" parent="HDor6ssJVbNIzG7uHwvL-1">
          <mxGeometry y="35" width="493" height="46" as="geometry" />
        </mxCell>
        <mxCell id="HDor6ssJVbNIzG7uHwvL-7" value="proxy" style="connectable=0;recursiveResize=0;strokeColor=inherit;fillColor=none;align=center;whiteSpace=wrap;html=1;" vertex="1" parent="HDor6ssJVbNIzG7uHwvL-6">
          <mxGeometry width="191" height="46" as="geometry">
            <mxRectangle width="191" height="46" as="alternateBounds" />
          </mxGeometry>
        </mxCell>
        <mxCell id="HDor6ssJVbNIzG7uHwvL-8" value="某个远程仓库的代理" style="connectable=0;recursiveResize=0;strokeColor=inherit;fillColor=none;align=center;whiteSpace=wrap;html=1;" vertex="1" parent="HDor6ssJVbNIzG7uHwvL-6">
          <mxGeometry x="191" width="302" height="46" as="geometry">
            <mxRectangle width="302" height="46" as="alternateBounds" />
          </mxGeometry>
        </mxCell>
        <mxCell id="HDor6ssJVbNIzG7uHwvL-10" style="shape=tableRow;horizontal=0;startSize=0;swimlaneHead=0;swimlaneBody=0;top=0;left=0;bottom=0;right=0;dropTarget=0;collapsible=0;recursiveResize=0;expand=0;fontStyle=0;fillColor=none;strokeColor=inherit;" vertex="1" parent="HDor6ssJVbNIzG7uHwvL-1">
          <mxGeometry y="81" width="493" height="47" as="geometry" />
        </mxCell>
        <mxCell id="HDor6ssJVbNIzG7uHwvL-11" value="group" style="connectable=0;recursiveResize=0;strokeColor=inherit;fillColor=none;align=center;whiteSpace=wrap;html=1;" vertex="1" parent="HDor6ssJVbNIzG7uHwvL-10">
          <mxGeometry width="191" height="47" as="geometry">
            <mxRectangle width="191" height="47" as="alternateBounds" />
          </mxGeometry>
        </mxCell>
        <mxCell id="HDor6ssJVbNIzG7uHwvL-12" value="存放：通过 Nexus 获取的第三方 jar 包" style="connectable=0;recursiveResize=0;strokeColor=inherit;fillColor=none;align=center;whiteSpace=wrap;html=1;" vertex="1" parent="HDor6ssJVbNIzG7uHwvL-10">
          <mxGeometry x="191" width="302" height="47" as="geometry">
            <mxRectangle width="302" height="47" as="alternateBounds" />
          </mxGeometry>
        </mxCell>
        <mxCell id="HDor6ssJVbNIzG7uHwvL-14" style="shape=tableRow;horizontal=0;startSize=0;swimlaneHead=0;swimlaneBody=0;top=0;left=0;bottom=0;right=0;dropTarget=0;collapsible=0;recursiveResize=0;expand=0;fontStyle=0;fillColor=none;strokeColor=inherit;" vertex="1" parent="HDor6ssJVbNIzG7uHwvL-1">
          <mxGeometry y="128" width="493" height="47" as="geometry" />
        </mxCell>
        <mxCell id="HDor6ssJVbNIzG7uHwvL-15" value="hosted" style="connectable=0;recursiveResize=0;strokeColor=inherit;fillColor=none;align=center;whiteSpace=wrap;html=1;" vertex="1" parent="HDor6ssJVbNIzG7uHwvL-14">
          <mxGeometry width="191" height="47" as="geometry">
            <mxRectangle width="191" height="47" as="alternateBounds" />
          </mxGeometry>
        </mxCell>
        <mxCell id="HDor6ssJVbNIzG7uHwvL-16" value="存放：本团队其他开发人员部署到 Nexus 的 jar 包" style="connectable=0;recursiveResize=0;strokeColor=inherit;fillColor=none;align=center;whiteSpace=wrap;html=1;" vertex="1" parent="HDor6ssJVbNIzG7uHwvL-14">
          <mxGeometry x="191" width="302" height="47" as="geometry">
            <mxRectangle width="302" height="47" as="alternateBounds" />
          </mxGeometry>
        </mxCell>
      </root>
    </mxGraphModel>
  </diagram>
</mxfile>
